<?xml version="1.0" encoding="UTF-8" standalone="no"?>
<svg width="50px" height="43px" viewBox="0 0 50 43" version="1.1" xmlns="http://www.w3.org/2000/svg" xmlns:xlink="http://www.w3.org/1999/xlink">
    <!-- Generator: Sketch 50 (54983) - http://www.bohemiancoding.com/sketch -->
    <title>Page 1</title>
    <desc>Created with Sketch.</desc>
    <defs></defs>
    <g id="Page-1" stroke="none" stroke-width="1" fill="none" fill-rule="evenodd">
        <g id="Reserve-Copy" transform="translate(-695.000000, -277.000000)" fill="#FFFFFF">
            <path d="M742.845064,277 C742.225893,277.001971 741.612621,277.27371 741.186806,277.791585 L711.27975,314.559489 L698.708807,301.253821 C697.884578,300.385411 696.52318,300.351939 695.6677,301.177027 C694.808269,302.002084 694.773118,303.374592 695.593477,304.242951 L709.839979,319.326575 C710.248198,319.757816 710.812663,320 711.398634,320 C711.42598,320 711.453326,320 711.478717,319.996061 C712.095939,319.972432 712.670159,319.686908 713.060823,319.204476 L744.512933,280.544692 C745.26295,279.617252 745.134045,278.252608 744.214093,277.492529 C743.811734,277.159744 743.327362,277.000247 742.844894,277.002213 L742.845064,277 Z" id="Page-1"></path>
        </g>
    </g>
</svg>