<?xml version="1.0" encoding="UTF-8" standalone="no"?>
<svg width="22px" height="17px" viewBox="0 0 22 17" version="1.1" xmlns="http://www.w3.org/2000/svg" xmlns:xlink="http://www.w3.org/1999/xlink">
    <!-- Generator: Sketch 50 (54983) - http://www.bohemiancoding.com/sketch -->
    <title>Combined Shape Copy 2</title>
    <desc>Created with Sketch.</desc>
    <defs></defs>
    <g id="Symbols" stroke="none" stroke-width="1" fill="none" fill-rule="evenodd">
        <g id="footer" transform="translate(-935.000000, -254.000000)" fill="#6AA2FF" fill-rule="nonzero">
            <g id="Group-5">
                <g transform="translate(351.000000, 237.000000)">
                    <g id="Group-11" transform="translate(0.000000, 15.000000)">
                        <g id="Group-2" transform="translate(584.000000, 2.000000)">
                            <path d="M22,6.74074074 L11.6085106,17 L10.372766,17 L0,6.74074074 L0,5.7037037 L5.76680851,0 L16.2331915,0 L22,5.7037037 L22,6.74074074 Z M16.6825532,2.55555556 L16.6825532,5.87037037 L20.0340426,5.87037037 L16.6825532,2.55555556 Z M16.532766,6.57407407 L11.9829787,14.537037 L20.0340426,6.57407407 L16.532766,6.57407407 Z M15.9710638,5.87037037 L15.9710638,2.35185185 L12.413617,5.87037037 L15.9710638,5.87037037 Z M11.3651064,0.703703704 L11.3651064,4.81481481 L15.5217021,0.703703704 L11.3651064,0.703703704 Z M6.06638298,2.38888889 L6.06638298,5.85185185 L9.56765957,5.85185185 L6.06638298,2.38888889 Z M5.35489362,2.5 L1.94723404,5.87037037 L5.35489362,5.87037037 L5.35489362,2.5 Z M1.96595745,6.57407407 L10.0170213,14.5555556 L5.50468085,6.57407407 L1.96595745,6.57407407 Z M10.6348936,14.2037037 L10.6348936,6.57407407 L6.30978723,6.57407407 L10.6348936,14.2037037 Z M10.6348936,4.81481481 L10.6348936,0.703703704 L6.47829787,0.703703704 L10.6348936,4.81481481 Z M11.3651064,6.57407407 L11.3651064,14.2037037 L15.7276596,6.57407407 L11.3651064,6.57407407 Z" id="Combined-Shape-Copy-2"></path>
                        </g>
                    </g>
                </g>
            </g>
        </g>
    </g>
</svg>