<?xml version="1.0" encoding="UTF-8" standalone="no"?>
<svg width="11px" height="12px" viewBox="0 0 11 12" version="1.1" xmlns="http://www.w3.org/2000/svg" xmlns:xlink="http://www.w3.org/1999/xlink">
    <!-- Generator: Sketch 50 (54983) - http://www.bohemiancoding.com/sketch -->
    <title>Combined Shape</title>
    <desc>Created with Sketch.</desc>
    <defs></defs>
    <g id="Page-1" stroke="none" stroke-width="1" fill="none" fill-rule="evenodd">
        <g id="Home" transform="translate(-1402.000000, -102.000000)" fill="#FFFFFF">
            <g id="Sound-off" transform="translate(1394.000000, 95.000000)">
                <path d="M16.8658193,15.0628216 L12.1276781,10.3246805 L16.0491602,7.11565495 L16.0491602,7.1157911 C16.3664809,6.84336972 16.8504555,7.08506655 16.8658193,7.49339606 L16.8658193,15.0628216 Z M16.8658193,17.8912488 L16.8658193,18.4911537 C16.8658193,18.9148561 16.3818508,19.1571396 16.0491602,18.8847185 L12.0557242,15.6168116 L9.81665903,15.4052645 C9.34806037,15.3751299 9,14.9821703 9,14.5129665 L9,11.487407 C9,11.1021397 9.25039703,10.7607399 9.61310816,10.6385377 L16.8658193,17.8912488 Z M8.40002441,8.41421356 L8.81423798,8 L18.9563736,18.1421356 L18.54216,18.5563492 L8.40002441,8.41421356 Z" id="Combined-Shape"></path>
            </g>
        </g>
    </g>
</svg>