<?xml version="1.0" encoding="UTF-8" standalone="no"?>
<svg width="26px" height="31px" viewBox="0 0 26 31" version="1.1" xmlns="http://www.w3.org/2000/svg" xmlns:xlink="http://www.w3.org/1999/xlink">
    <!-- Generator: Sketch 50 (54983) - http://www.bohemiancoding.com/sketch -->
    <title>Page 1</title>
    <desc>Created with Sketch.</desc>
    <defs></defs>
    <g id="Page-1" stroke="none" stroke-width="1" fill="none" fill-rule="evenodd">
        <g id="Главная-Mobile" transform="translate(-310.000000, -372.000000)" fill="#FFFFFF">
            <g id="Group-4-Copy-2" transform="translate(320.000000, 387.000000) scale(-1, 1) rotate(-270.000000) translate(-320.000000, -387.000000) translate(288.000000, 355.000000)">
                <g id="Group-2">
                    <path d="M46.4560245,22.2 L46.455756,22.2001486 C47.0074934,22.1975879 47.5211882,22.4735214 47.7947441,22.927858 C48.0683,23.3821946 48.0696321,23.9417815 47.7914545,24.3986767 L33.9774218,47.0867368 C33.8376044,47.3155878 33.6590287,47.4901734 33.426853,47.6187101 C33.1946773,47.7472467 32.965726,47.7982756 32.6891038,47.7999732 C32.1358592,47.8033683 31.7000664,47.4843069 31.4265105,47.0299702 L17.8428174,24.4694304 C17.5692615,24.0150937 17.4990131,23.4936602 17.7771907,23.036765 C18.0568639,22.5790417 18.4958271,22.3360237 19.0475606,22.3334651 L46.4560245,22.2 Z" id="Page-1"></path>
                </g>
            </g>
        </g>
    </g>
</svg>