<?xml version="1.0" encoding="UTF-8" standalone="no"?>
<svg width="10px" height="10px" viewBox="0 0 10 10" version="1.1" xmlns="http://www.w3.org/2000/svg" xmlns:xlink="http://www.w3.org/1999/xlink">
    <!-- Generator: Sketch 50 (54983) - http://www.bohemiancoding.com/sketch -->
    <title>Page 1</title>
    <desc>Created with Sketch.</desc>
    <defs></defs>
    <g id="Page-1" stroke="none" stroke-width="1" fill="none" fill-rule="evenodd">
        <g id="Reserve" transform="translate(-716.000000, -703.000000)" fill="#FFFFFF">
            <g id="Group-14" transform="translate(-16.000000, 0.000000)">
                <path d="M741.758013,703.229999 C741.451409,702.923334 740.944916,702.923334 740.625306,703.229999 L737.000779,706.855256 L733.362659,703.229999 C733.056055,702.923334 732.549562,702.923334 732.229953,703.229999 C731.923349,703.536664 731.923349,704.043259 732.229953,704.362934 L735.868072,707.988191 L732.243545,711.627043 C731.936942,711.933709 731.936942,712.440304 732.243545,712.759978 C732.40335,712.919815 732.603239,713 732.803129,713 C733.003018,713 733.216447,712.91982 733.362712,712.759978 L737.000832,709.121125 L740.638952,712.759978 C740.798757,712.919815 740.998646,713 741.198536,713 C741.398425,713 741.611853,712.91982 741.758119,712.759978 C742.064723,712.453312 742.064723,711.946717 741.758119,711.627043 L738.133592,707.988191 L741.771712,704.349338 C742.078315,704.042673 742.078315,703.536598 741.758178,703.229946 L741.758013,703.229999 Z" id="Page-1"></path>
            </g>
        </g>
    </g>
</svg>