<?xml version="1.0" encoding="UTF-8" standalone="no"?>
<svg width="17px" height="17px" viewBox="0 0 17 17" version="1.1" xmlns="http://www.w3.org/2000/svg" xmlns:xlink="http://www.w3.org/1999/xlink">
    <!-- Generator: Sketch 50 (54983) - http://www.bohemiancoding.com/sketch -->
    <title>Page 1</title>
    <desc>Created with Sketch.</desc>
    <defs></defs>
    <g id="Page-1" stroke="none" stroke-width="1" fill="none" fill-rule="evenodd">
        <g id="Караоке" transform="translate(-200.000000, -1324.000000)" fill="#FFFFFF">
            <g id="Group-12" transform="translate(120.000000, 1253.000000)">
                <g id="Group-6" transform="translate(50.000000, 57.000000)">
                    <g id="Group" transform="translate(30.000000, 14.000000)">
                        <path d="M16.73787,15.4726709 C17.0873767,15.8221786 17.0873767,16.3883923 16.73787,16.7378776 C16.3883634,17.0873629 15.8221516,17.0873853 15.4726673,16.7378776 L11.0950776,12.3620637 C10.9220712,12.187312 10.6127696,12.1628454 10.4170459,12.2991545 C10.4170459,12.2991545 10.2947175,12.3917735 10.0360849,12.5403137 C9.05572165,13.1012708 7.91980842,13.4210955 6.71052676,13.4210955 C3.00398967,13.4210955 0,10.4170964 0,6.71054773 C0,3.00399906 3.00398967,0 6.71052676,0 C10.4170638,0 13.4210535,3.00399906 13.4210535,6.71054773 C13.4210535,7.92860161 13.0960135,9.07145263 12.5298061,10.0553531 C12.3830156,10.3087479 12.3026279,10.4118532 12.3026279,10.4118532 C12.1610761,10.6145654 12.1872919,10.9221233 12.3620429,11.0951212 L16.73787,15.4726709 Z M6.75,12 C9.64905,12 12,9.64905 12,6.75 C12,3.85095 9.64905,1.5 6.75,1.5 C3.85095,1.5 1.5,3.85095 1.5,6.75 C1.5,9.64905 3.85095,12 6.75,12 Z" id="Page-1"></path>
                    </g>
                </g>
            </g>
        </g>
    </g>
</svg>