<?xml version="1.0" encoding="UTF-8" standalone="no"?>
<svg width="15px" height="12px" viewBox="0 0 15 12" version="1.1" xmlns="http://www.w3.org/2000/svg" xmlns:xlink="http://www.w3.org/1999/xlink">
    <!-- Generator: Sketch 50 (54983) - http://www.bohemiancoding.com/sketch -->
    <title>Combined Shape</title>
    <desc>Created with Sketch.</desc>
    <defs></defs>
    <g id="Page-1" stroke="none" stroke-width="1" fill="none" fill-rule="evenodd">
        <g id="Home-full" transform="translate(-1399.000000, -102.000000)" fill="#FFFFFF">
            <g id="Sound-on" transform="translate(1394.000000, 95.000000)">
                <path d="M12.4442789,7.11565495 L12.4442789,7.1157911 C12.7615996,6.84336972 13.2455741,7.08506655 13.2609379,7.49339606 L13.2609379,18.4911537 C13.2609379,18.9148561 12.7769694,19.1571396 12.4442789,18.8847185 L8.45084284,15.6168116 L6.21177766,15.4052645 C5.743179,15.3751299 5.39511863,14.9821703 5.39511863,14.5129665 L5.39511863,11.487407 C5.39511863,11.033573 5.74257389,10.6406103 6.21177766,10.5951089 L8.45084284,10.3835618 L12.4442789,7.11565495 Z M16.2107979,9.3539639 L16.2107979,9.35403046 C17.027457,10.3526164 17.4966607,11.5929899 17.4966607,12.9692716 C17.4966607,14.3462037 17.0126922,15.6166967 16.2107979,16.6153734 C16.0896545,16.7666513 15.8928782,16.7820151 15.756964,16.6608747 L15.2121213,16.1769062 C15.0909809,16.0711327 15.0762071,15.8743473 15.1819837,15.7532069 C15.7870956,14.996817 16.1499207,14.0282446 16.1499207,12.9846686 C16.1499207,11.9403968 15.7870956,10.9725203 15.1819837,10.2161304 C15.0762071,10.0796171 15.0909809,9.8982076 15.2121213,9.79243101 L15.756964,9.30846251 C15.8928722,9.18731608 16.1050214,9.21804971 16.2107979,9.3539639 Z M17.8748557,7.81107981 L17.8748557,7.81119478 C19.0549449,9.21807997 19.7658304,10.9880323 19.7658304,12.9705302 C19.7658304,14.9525742 19.0549449,16.7525099 17.8748557,18.1595161 C17.7690821,18.2954303 17.557532,18.310794 17.4363916,18.1896537 L16.8915488,17.6903153 C16.7704085,17.5845418 16.7556347,17.4025302 16.8614112,17.266616 C17.829318,16.1019268 18.4042953,14.603821 18.4042953,12.9852979 C18.4042953,11.3667749 17.8293483,9.86869932 16.8614112,8.70397992 C16.7556347,8.58283651 16.7704085,8.38605715 16.8915488,8.28028056 L17.4363916,7.78094222 C17.5569299,7.67516563 17.7690791,7.67516563 17.8748557,7.81107981 Z" id="Combined-Shape"></path>
            </g>
        </g>
    </g>
</svg>