<?xml version="1.0" encoding="UTF-8" standalone="no"?>
<svg width="73px" height="39px" viewBox="0 0 73 39" version="1.1" xmlns="http://www.w3.org/2000/svg" xmlns:xlink="http://www.w3.org/1999/xlink">
    <!-- Generator: Sketch 50 (54983) - http://www.bohemiancoding.com/sketch -->
    <title>Logo</title>
    <desc>Created with Sketch.</desc>
    <defs></defs>
    <g id="Symbols" stroke="none" stroke-width="1" fill="none" fill-rule="evenodd">
        <g id="Nav/Dark" transform="translate(-683.000000, -17.000000)" fill="#FFFFFF">
            <path d="M722.989246,43.8885305 C723.027574,44.339196 723.07898,44.7519014 723.155637,45.1270881 C723.296325,45.8280253 723.628204,46.3532867 724.088597,46.7284734 C724.625196,47.1663384 725.31556,47.3918919 726.031626,47.4545701 C727.15623,47.5543257 728.089641,47.3044955 728.843585,46.8039522 L728.869288,46.7915931 C729.699889,46.2279302 730.338847,45.3398411 730.773538,44.2385577 C730.824492,44.1136425 730.875897,43.9759269 730.914226,43.8386527 C730.338847,43.7508149 729.993891,43.5257028 729.776546,43.1752343 C729.520872,42.7625289 729.49517,42.2496265 729.49517,41.6113676 C729.49517,40.7727149 729.508246,39.9720223 729.520872,39.1713296 C729.546575,37.7950564 729.572277,36.4563018 729.482544,35.1051881 C729.431589,34.5044479 729.354932,33.966386 729.201167,33.528521 C729.06093,33.1030151 728.856211,32.7525465 728.575286,32.4775567 C728.485552,32.3901603 728.447223,32.2648037 728.459849,32.1394472 C728.677194,29.9876409 728.498178,28.3235773 727.935876,27.1225384 C727.475934,26.1466114 726.747242,25.4708339 725.737624,25.0952058 C725.75025,26.6595138 725.75025,28.798961 725.762876,31.1886799 C725.775953,34.4294106 725.775953,38.1455249 725.775953,41.5239712 C725.775953,43.0503192 724.791587,43.6130993 723.922206,43.8006927 C723.590327,43.8761714 723.283248,43.8885305 723.053277,43.8885305 L722.989246,43.8885305 Z M722.925215,40.2726131 C722.912589,41.2860587 722.912589,42.2244669 722.938291,43.0750373 L723.065903,43.0750373 C723.244919,43.0750373 723.487516,43.0626783 723.74319,43 C724.305942,42.887444 724.944901,42.5246163 724.944901,41.5239712 C724.944901,39.033614 724.932275,36.3565462 724.932275,33.8163113 C724.535913,33.6909548 724.1143,33.5911992 723.692235,33.5033614 C723.347279,33.4411245 723.001872,33.3784463 722.644289,33.3409276 C722.950917,35.8056838 722.938291,38.1830436 722.925215,40.2726131 Z M718.937248,23.1808706 C719.359312,23.9316855 719.780925,24.7076599 720.26657,25.5833899 C720.765291,26.4842795 721.161653,27.3975282 721.493984,28.3235773 C721.634672,26.8219476 721.634672,25.1830436 721.378547,23.6566956 C721.097622,21.9423129 720.496992,20.3656458 719.448595,19.2396442 C719.001279,18.7642605 718.464229,18.4142333 717.812644,18.1886799 C717.313923,18.0134456 716.764247,17.901331 716.138366,17.8382113 C716.738996,19.2648037 717.799568,21.1539794 718.937248,23.1808706 Z M705.694978,47.0162638 C706.666718,47.9171533 707.56135,48.7558061 708.532639,48.4927339 C708.916375,48.3929784 709.248706,48.067228 709.491303,47.4294106 C709.785305,46.6909548 709.93907,45.5649531 709.925993,43.9260492 C709.925993,43.5380619 709.951696,42.2871452 709.964321,40.8980714 C709.990024,39.1589705 710.015727,37.2194758 710.015727,36.5940174 L710.015727,30.3005908 C710.015727,30.1752343 710.066681,30.0626783 710.169041,29.9752818 C710.411638,29.7625289 710.987016,29.3869007 711.690006,29.0368736 L711.690006,27.923231 C711.67738,27.4977251 711.67738,27.047501 711.67738,26.6219951 L711.561943,26.4966386 C711.293644,26.2340079 710.999642,25.9338585 710.757045,25.8963398 C710.475669,25.846462 710.066681,25.9086989 709.631991,26.0715741 C709.23608,26.2216488 708.814016,26.4591199 708.43028,26.7592693 L708.468608,41.4484925 C708.468608,43.2379125 708.405028,44.5890262 707.893681,45.5150754 C707.446365,46.3162094 706.730298,46.7787926 705.541664,46.8789895 L705.694978,47.0162638 Z M719.870208,52.0839332 C718.719902,51.5211531 717.748613,50.6825003 716.968967,49.6566956 C716.240274,48.7182874 715.677973,47.6170039 715.256359,46.415965 C715.089968,48.60529 714.463636,49.9440445 712.367293,50.39471 L712.584638,50.5077075 C713.926586,51.2082032 715.575613,52.0839332 718.094021,52.0839332 L719.870208,52.0839332 Z M715.256359,42.0615917 C715.422299,44.777061 716.215023,47.3168545 717.633628,49.1685115 C718.949873,50.8824528 720.816246,51.9965367 723.244919,52.0839332 C724.855618,52.0839332 726.159238,52.0715741 726.632256,52.0839332 L728.651943,52.0839332 C730.096251,50.607463 731.732201,48.9305989 733.227914,49.1437933 C733.726184,49.2188306 734.327265,49.5816583 734.953147,50.0945606 C735.541151,50.5827448 736.154858,51.2082032 736.742862,51.8208611 C736.832145,51.9086989 736.909253,51.9965367 736.98591,52.0839332 C740.19378,51.9214994 741.33146,51.4584748 742.239169,51.0956472 C742.993113,50.7950564 743.594194,50.5575852 744.245778,50.5699443 C745.191815,50.5827448 746.061196,50.9579315 746.955828,51.3331183 C747.697146,51.6584273 748.45109,51.9713772 749.230737,52.0715741 C749.767787,52.1338109 750.841436,52.1090928 751.915084,52.0962923 C752.259914,52.088539 753.485959,52.0844337 755.593222,52.0839762 L755.593222,52.0839896 C755.81783,52.0839409 755.999951,52.2659827 756,52.4905915 C756,52.4906209 756,52.4906503 756,52.4906798 L756,52.4906798 C756,52.7153197 755.817893,52.8974263 755.593253,52.8974263 L753.385095,52.8974263 C750.815733,52.934945 749.703756,52.9473041 749.128828,52.8846258 C748.233745,52.7716284 747.41577,52.4344017 746.623497,52.0839332 C745.805522,51.7458237 745.000173,51.3953552 744.233152,51.3829961 C743.760133,51.370637 743.223534,51.595749 742.558422,51.8583797 C741.587133,52.246367 740.385873,52.7217506 738.660189,52.8471072 C737.790809,52.9848228 737.867916,53.0722192 737.944573,53.1596156 C739.337476,54.7614423 739.695509,55.1869483 743.121175,55.1869483 C746.667354,55.1869483 749.320026,55.1583854 751.079191,55.1012596 L751.07919,55.1012506 C751.299235,55.0941051 751.48341,55.2666942 751.490555,55.4867392 C751.490695,55.4910505 751.490765,55.4953639 751.490765,55.4996774 L751.490765,55.4996774 C751.490765,55.7301743 751.307381,55.9188382 751.076977,55.9253789 C749.324389,55.9751237 746.672455,56 743.121175,56 C739.312224,56 738.903237,55.5246163 737.305164,53.6976776 C736.98591,53.3229322 736.602174,52.8846258 736.129156,52.384524 C735.554228,51.7709833 734.953147,51.1830436 734.416548,50.720019 C733.892575,50.3073136 733.432182,50.0067228 733.112929,49.956845 C732.038829,49.8067703 730.556192,51.3203178 729.290901,52.6219951 C728.715523,53.1971343 728.19155,53.7475553 727.731608,54.1108244 C724.382599,56.7132962 722.068911,55.9373217 719.422892,55.0615917 C718.170227,54.6360858 716.840904,54.1982208 715.294688,54.1108244 C714.003694,54.035787 712.712249,54.3734551 711.191284,54.7614423 C709.158972,55.2871452 706.717672,55.9126036 703.227976,55.9126036 L687.922161,55.9126036 C687.694108,55.9126036 687.509235,55.7277302 687.509235,55.4996774 L687.509235,55.4996774 C687.509235,55.2716246 687.694108,55.0867513 687.922161,55.0867513 L703.227976,55.0867513 C706.62839,55.0867513 709.005658,54.473652 710.973939,53.9731088 C712.572012,53.5604034 713.91396,53.2099348 715.345642,53.2977726 C717.007295,53.3851691 718.387572,53.8481937 719.691642,54.2860587 C722.107239,55.0867513 724.216209,55.8000475 727.207184,53.4602064 C727.399277,53.3101317 727.616622,53.122097 727.846593,52.8974263 C725.353888,52.9097854 723.794595,52.9097854 723.257545,52.8974263 L718.094021,52.8974263 C715.358268,52.8974263 713.619958,51.9837362 712.188276,51.2329214 C711.255315,50.7451786 710.475669,50.3320318 709.682945,50.3443909 C708.417654,50.3571914 707.075706,51.1331658 705.682352,51.9338585 C704.08473,52.8722667 702.423077,53.8230341 700.60766,53.7983159 C699.956075,53.7855154 699.534011,53.6226402 699.03574,53.4350469 C698.460362,53.2099348 697.770449,52.9473041 696.415424,52.8974263 C695.22679,52.8471072 693.718451,52.8599076 691.839453,52.8846258 C691.142178,52.8846258 689.082819,52.8885782 685.661376,52.8964829 L685.661376,52.8964996 C685.437248,52.8970174 685.255136,52.7157454 685.254618,52.4916173 C685.254618,52.4913048 685.254617,52.4909923 685.254617,52.4906798 L685.254617,52.4906798 C685.254617,52.2658944 685.436565,52.0835237 685.66135,52.083002 C689.082809,52.0750637 691.142176,52.0669868 691.839453,52.0587736 C693.731077,52.0464145 695.252042,52.0340554 696.441127,52.0839332 C697.936389,52.1338109 698.70341,52.4220426 699.329742,52.6718729 C699.751356,52.8347481 700.122015,52.9724637 700.620736,52.9724637 C702.205732,52.9971819 703.7524,52.1090928 705.260739,51.2329214 C706.743375,50.3819095 708.174606,49.5436982 709.670319,49.5185386 C710.10501,49.5185386 710.513997,49.5940174 710.922985,49.731733 C714.578621,49.6068179 714.527667,47.2669768 714.437933,42.9002445 C714.437933,42.6371723 714.425307,42.3621825 714.425307,42.0867513 C714.412231,41.8863575 714.399605,41.686405 714.399605,41.4860111 C714.374353,38.595749 714.450559,34.9926321 715.409222,30.7132962 C715.230657,30.1377156 715.05164,29.5497759 714.898326,28.9741953 L714.834295,29.0991104 C714.489338,28.9366766 713.863006,29.0615917 713.21097,29.2867038 C712.239681,29.6124542 711.255315,30.1752343 710.846328,30.4881842 L710.846328,36.5812169 C710.858954,37.2318348 710.833251,39.1713296 710.807999,40.9104305 C710.782297,42.2995043 710.769671,43.550421 710.769671,43.9136901 C710.782297,45.6651501 710.60328,46.8913486 710.284026,47.7172009 C709.925993,48.64325 709.388943,49.1062746 708.763061,49.2810675 C707.331379,49.6690547 706.270356,48.6807687 705.120051,47.6170039 C704.148311,46.7033139 703.100364,45.7278283 701.809371,45.7401874 C700.505751,45.7525465 699.495682,46.5660397 698.486065,47.3795328 C697.783075,47.9423129 697.092711,48.4927339 696.274736,48.8432025 C695.776015,49.0559555 695.162759,49.2311897 694.472395,49.3689053 C693.782482,49.5061795 693.028087,49.6068179 692.222738,49.6818552 C691.545451,49.7440921 690.906492,49.7939698 690.254457,49.8191294 C689.871535,49.8415982 689.094177,49.8640669 687.922384,49.8865356 L687.922384,49.8865439 C687.698541,49.890836 687.513601,49.712855 687.509309,49.4890122 C687.50926,49.486422 687.509235,49.4838314 687.509235,49.4812407 L687.509235,49.4812407 C687.509235,49.25247 687.693009,49.0661322 687.921757,49.0629631 C689.061888,49.0471481 689.826678,49.0280456 690.216128,49.0056363 C690.868164,48.9681176 691.494045,48.9305989 692.146081,48.8683621 C692.925727,48.7933247 693.65442,48.6931278 694.306455,48.5677713 C694.932788,48.4428562 695.495089,48.2927815 695.942405,48.0923876 C696.581815,47.8173978 697.156742,47.3795328 697.73167,46.9165082 L683.412926,46.8920539 C683.184759,46.8916642 683,46.7065893 683,46.4784225 L683,46.4784225 C683,46.2509113 683.184434,46.066477 683.411946,46.066477 C683.412272,46.066477 683.412598,46.0664774 683.412925,46.0664782 L698.780067,46.1030151 C699.648996,45.4651976 700.582408,44.9394948 701.796294,44.9271357 C702.908722,44.9147766 703.81598,45.4148784 704.621329,46.0654964 C706.027309,46.1405337 706.768627,45.8156662 707.152363,45.1270881 C707.573976,44.3515551 707.638007,43.112556 707.638007,41.4484925 L707.599679,29.7250102 C705.631398,30.0251596 705.426679,30.5755806 705.068645,31.3639142 C705.05602,32.9781 705.081722,34.4170515 705.120051,35.6931278 C705.145302,36.5812169 705.158379,37.39471 705.158379,38.045328 C705.158379,42.0991104 704.544672,43.9635678 700.377689,43.9635678 L687.922151,43.8789757 C687.693652,43.8774239 687.509235,43.6917503 687.509235,43.4632453 L687.509235,43.4632453 C687.509235,43.2367361 687.692857,43.053114 687.919366,43.053114 C687.920294,43.053114 687.921223,43.0531172 687.922151,43.0531235 L700.377689,43.1377156 C703.81598,43.1377156 704.327327,41.5363303 704.327327,38.045328 C704.327327,37.282154 704.302075,36.5313391 704.288999,35.7182874 C704.25067,34.404251 704.212342,32.9277808 704.238044,31.2637172 C704.238044,31.2138395 704.25067,31.1511612 704.276373,31.1012834 C704.864377,29.8252071 705.005065,29.1993073 705.005065,29.1993073 C705.05602,28.9993549 705.247662,28.8739984 705.452381,28.8867989 L707.599679,28.911517 L707.587053,26.5721173 C707.587053,26.4591199 707.638007,26.3342048 707.740367,26.2591675 C708.251714,25.8336616 708.80139,25.5083526 709.337989,25.3079587 C709.912916,25.0952058 710.463043,25.0078093 710.910359,25.0828467 C711.408629,25.1830436 711.804991,25.5705894 712.149947,25.921058 C712.239681,25.9960953 712.316338,26.0715741 712.380369,26.1466114 C712.469652,26.2216488 712.520607,26.3218457 712.520607,26.4467608 L712.520607,27.923231 L712.520607,28.6612454 C712.661295,28.6113676 712.801983,28.5610485 712.929594,28.5111707 C713.569004,28.2984178 714.195336,28.1735026 714.719309,28.2361809 C714.489338,27.2849722 714.322948,26.3342048 714.207962,25.3834375 C713.91396,22.7306465 714.118679,20.0782969 715.128297,17.2502716 C715.166625,17.1377156 715.256359,17.0503192 715.383971,17 C716.495948,17.0128005 717.352702,17.1500747 718.106646,17.4131468 C718.873667,17.688578 719.525252,18.1012834 720.062302,18.6892231 C721.23831,19.9529404 721.889894,21.6796822 722.209599,23.51898 C722.580258,25.7709833 722.43957,28.2233804 722.068911,30.212753 C722.260553,30.9887274 722.414318,31.7519014 722.528853,32.5150754 C722.97662,32.5525941 723.423936,32.6152723 723.858626,32.7026687 C724.216209,32.765347 724.574242,32.8531848 724.932275,32.9529404 L724.919198,31.1886799 C724.919198,28.5111707 724.906572,26.1589705 724.893947,24.5699443 C724.88087,24.5324256 724.893947,24.4825479 724.906572,24.4322287 C724.957527,24.2194758 725.187498,24.0817602 725.41792,24.1320793 C726.951961,24.5200665 728.050862,25.3957966 728.702897,26.7844289 C729.316604,28.0856648 729.508246,29.8252071 729.303527,32.0396917 C729.610606,32.3901603 729.840577,32.7900652 729.993891,33.2658903 C730.172908,33.7787926 730.26219,34.3795328 730.313596,35.0425098 C730.415504,36.4187831 730.390253,37.7826973 730.351924,39.1841301 C730.338847,39.9720223 730.326222,40.7855154 730.338847,41.5990086 C730.338847,42.1119109 730.351924,42.5122572 730.492612,42.7497284 C730.581895,42.9002445 730.786614,43 731.156823,43.0375187 C731.23393,42.7250102 731.297511,42.4120603 731.361542,42.0867513 C731.514856,41.1858617 731.578887,40.2973313 731.591513,39.4842795 C731.629841,37.4070691 731.617215,34.4920888 731.591513,31.0262461 C731.578887,28.4489339 731.553184,25.5705894 731.553184,22.4803748 C731.553184,22.3174997 731.655544,22.1550659 731.821484,22.0923876 C732.869881,21.6673231 733.432182,21.4417697 733.432182,21.4417697 C734.4418,21.8549165 734.902193,22.2927815 735.196195,22.7805242 C735.502823,23.2810675 735.630885,23.8319299 735.566854,24.4322287 L735.541151,25.4333152 C736.052499,26.0839332 736.423158,26.7093916 736.640503,27.3101317 C736.8831,27.9731088 736.947582,28.6113676 736.845222,29.2244669 L736.730237,31.1260016 L737.714152,32.5649531 C737.85484,32.8531848 737.906245,33.528521 737.880542,34.6421635 L738.072185,40.4602064 C738.519501,41.4484925 739.030848,42.3118634 739.669807,43.0503192 L751.077839,43.0503192 C751.305892,43.0503192 751.490765,43.2351925 751.490765,43.4632453 L751.490765,43.4632453 C751.490765,43.6912981 751.305892,43.8761714 751.077839,43.8761714 L740.488233,43.8761714 C740.794861,44.1388021 741.114115,44.3762733 741.472148,44.5890262 C743.06977,45.5525941 745.24277,46.0654964 748.323479,46.0654964 C750.307715,46.0893681 752.728967,46.0904568 755.587237,46.0687626 L755.587237,46.0687803 C755.813476,46.0670631 755.998271,46.2490742 755.999988,46.4753133 C755.999996,46.4763497 756,46.4773861 756,46.4784225 L756,46.4784225 C756,46.7070601 755.815562,46.8928863 755.586931,46.8946005 C752.744229,46.9159216 750.318719,46.9107155 748.310402,46.8789895 C745.07683,46.8789895 742.763142,46.3285685 741.037458,45.2895219 C739.286522,44.2261986 738.148842,42.6874915 737.266836,40.7104781 C737.241133,40.6606003 737.228507,40.597922 737.228507,40.5476029 L737.04949,34.6545226 C737.062116,33.6909548 737.04949,33.1405337 736.998536,32.9904591 L735.963216,31.4641111 C735.91181,31.3762733 735.886559,31.2888768 735.886559,31.201039 L736.001544,29.1494296 C736.090827,28.6237267 736.039873,28.1231835 735.84823,27.5851216 C735.643511,27.0223414 735.298555,26.4344017 734.787207,25.8208611 C734.723176,25.7458237 734.697474,25.6460682 734.697474,25.5582303 L734.735802,24.39471 C734.774582,23.9440445 734.697474,23.5564987 734.480128,23.1936711 C734.27586,22.8683621 733.969232,22.5682127 733.547168,22.279981 C733.330274,22.3678188 732.946538,22.5178935 732.396862,22.7430056 C732.396862,25.7211055 732.409939,28.5235298 732.422565,31.013887 C732.448267,34.5044479 732.473519,37.4198696 732.435191,39.4966386 C732.409939,40.3476504 732.345908,41.2860587 732.179517,42.2244669 C732.038829,43.0128005 731.834561,43.8006927 731.553184,44.5391484 C731.054914,45.7900652 730.326222,46.8039522 729.341856,47.4669292 C728.396269,48.0923876 727.283841,48.3929784 725.967595,48.2676219 C725.072963,48.1925845 724.229285,47.9047942 723.551998,47.3543732 C722.950917,46.8666304 722.516227,46.1904115 722.324585,45.2771628 C722.068911,43.9635678 722.068911,42.2496265 722.081537,40.2726131 C722.107239,36.0934741 722.145568,30.7636154 719.525252,25.9713772 C719.12889,25.2329214 718.656322,24.39471 718.195929,23.5688578 C717.160609,21.7423605 716.201946,20.0156186 715.562987,18.6141858 C714.910952,20.9037077 714.795966,23.1062746 715.039014,25.2955996 C715.333016,27.8481937 716.112663,30.4003463 717.122281,33.0778555 C717.505566,34.0917425 717.82527,35.392537 718.170227,36.8191294 C719.422892,42.0240731 721.13595,49.0683145 727.641874,49.0683145 C728.472926,49.0683145 729.239496,48.8683621 729.955562,48.5801304 C730.645475,48.3051406 731.297511,47.9299538 731.872889,47.5918444 C732.281877,47.3918919 732.678238,47.1791389 733.035821,46.9787451 C733.611199,46.6657952 734.135172,46.3784463 734.646519,46.203212 C736.934505,45.440038 737.906245,46.1281747 739.184162,47.0162638 C740.053543,47.6170039 741.075786,48.3426592 742.891204,48.6556091 C744.78077,48.9787481 747.810467,49.1179728 751.980293,49.0732832 L751.980294,49.0733174 C752.205584,49.0709029 752.390174,49.251579 752.392589,49.4768688 C752.392604,49.478326 752.392612,49.4797833 752.392612,49.4812407 L752.392612,49.4812407 C752.392612,49.710174 752.208075,49.896314 751.97915,49.8982939 C747.74987,49.9348653 744.673659,49.7875369 742.750516,49.4563018 C740.756532,49.1186337 739.644555,48.3426592 738.698518,47.6792408 C737.624869,46.9288673 736.793817,46.3532867 734.914819,46.9787451 C734.467503,47.1288198 733.981858,47.3918919 733.457885,47.6924827 C733.112929,47.8796347 732.754895,48.0800285 732.37161,48.2552628 C731.757904,48.6176491 731.054914,49.0184368 730.275267,49.3437458 C729.469918,49.6690547 728.587912,49.8941668 727.641874,49.8941668 C720.471289,49.8941668 718.668948,42.4747386 717.352702,37.0190819 C717.007295,35.5929309 716.700667,34.3168545 716.342634,33.3660872 C716.201946,33.0028181 716.074334,32.6404319 715.946272,32.2899633 C715.218031,36.1437933 715.218031,39.4216012 715.256359,42.0615917 Z" id="Logo"></path>
        </g>
    </g>
</svg>