<?xml version="1.0" encoding="UTF-8" standalone="no"?>
<svg width="123px" height="94px" viewBox="0 0 123 94" version="1.1" xmlns="http://www.w3.org/2000/svg" xmlns:xlink="http://www.w3.org/1999/xlink">
    <!-- Generator: Sketch 50 (54983) - http://www.bohemiancoding.com/sketch -->
    <title>Group 2</title>
    <desc>Created with Sketch.</desc>
    <defs></defs>
    <g id="Symbols" stroke="none" stroke-width="1" fill="none" fill-rule="evenodd">
        <g id="footer" transform="translate(-659.000000, -35.000000)" fill="#FFFFFF">
            <g id="Group">
                <g transform="translate(657.300002, 35.000000)">
                    <g id="Group-2" transform="translate(1.000000, 0.000000)">
                        <path d="M2.94413912,90.4296875 L4.81132662,93 L3.69804537,93 L1.97538912,90.53125 L1.81132662,90.53125 L1.81132662,93 L0.901170373,93 L0.901170373,86.96875 L1.96757662,86.96875 C2.76445561,86.96875 3.33997069,87.1184881 3.69413912,87.4179688 C4.08476608,87.7513038 4.28007662,88.1914035 4.28007662,88.7382812 C4.28007662,89.1653667 4.15768201,89.5325505 3.91288912,89.8398438 C3.66809623,90.147137 3.34518279,90.3437496 2.94413912,90.4296875 Z M1.81132662,89.7382812 L2.10038912,89.7382812 C2.9623726,89.7382812 3.39335787,89.4088575 3.39335787,88.75 C3.39335787,88.1328094 2.97409123,87.8242188 2.13554537,87.8242188 L1.81132662,87.8242188 L1.81132662,89.7382812 Z M9.04570162,87.8242188 L6.62773287,87.8242188 L6.62773287,89.2734375 L8.97538912,89.2734375 L8.97538912,90.1289062 L6.62773287,90.1289062 L6.62773287,92.1445312 L9.04570162,92.1445312 L9.04570162,93 L5.71757662,93 L5.71757662,86.96875 L9.04570162,86.96875 L9.04570162,87.8242188 Z M13.6511704,87.8671875 L12.9128891,88.3046875 C12.7748676,88.065103 12.6433585,87.9088545 12.5183579,87.8359375 C12.3881489,87.7526038 12.2201818,87.7109375 12.0144516,87.7109375 C11.7618462,87.7109375 11.5522129,87.7825514 11.3855454,87.9257812 C11.2188779,88.066407 11.1355454,88.2434885 11.1355454,88.4570312 C11.1355454,88.7513036 11.3542932,88.9882804 11.7917954,89.1679688 L12.3933579,89.4140625 C12.8829437,89.6119802 13.241013,89.8535142 13.4675766,90.1386719 C13.6941403,90.4238296 13.8074204,90.7734354 13.8074204,91.1875 C13.8074204,91.7421903 13.6225264,92.200519 13.2527329,92.5625 C12.8803352,92.9270852 12.4181002,93.109375 11.8660141,93.109375 C11.342574,93.109375 10.9102867,92.9544286 10.5691391,92.6445312 C10.2331999,92.3346339 10.0235666,91.8984403 9.94023287,91.3359375 L10.8621079,91.1328125 C10.9037747,91.4869809 10.9766907,91.7317702 11.0808579,91.8671875 C11.2683588,92.1276055 11.5417936,92.2578125 11.9011704,92.2578125 C12.185026,92.2578125 12.4207007,92.1627614 12.6082016,91.9726562 C12.7957026,91.7825511 12.8894516,91.5416681 12.8894516,91.25 C12.8894516,91.1328119 12.8731757,91.0253911 12.8406235,90.9277344 C12.8080713,90.8300776 12.7572905,90.7402348 12.6882797,90.6582031 C12.619269,90.5761715 12.5300772,90.4993493 12.4207016,90.4277344 C12.3113261,90.3561194 12.181119,90.2877607 12.0300766,90.2226562 L11.4480454,89.9804688 C10.6225204,89.6315087 10.2097641,89.1210971 10.2097641,88.4492188 C10.2097641,87.9960915 10.3829395,87.617189 10.7292954,87.3125 C11.0756513,87.0052068 11.5066365,86.8515625 12.0222641,86.8515625 C12.7175801,86.8515625 13.2605434,87.1901008 13.6511704,87.8671875 Z M16.5691391,87.8242188 L16.5691391,93 L15.6589829,93 L15.6589829,87.8242188 L14.2722641,87.8242188 L14.2722641,86.96875 L17.9519516,86.96875 L17.9519516,87.8242188 L16.5691391,87.8242188 Z M22.3074204,91.5351562 L19.7253891,91.5351562 L19.0535141,93 L18.0730454,93 L21.0574204,86.5898438 L23.9363266,93 L22.9402329,93 L22.3074204,91.5351562 Z M21.9363266,90.6796875 L21.0417954,88.6289062 L20.1042954,90.6796875 L21.9363266,90.6796875 Z M25.6003891,86.96875 L25.6003891,90.6015625 C25.6003891,91.1197943 25.6850237,91.4986967 25.8542954,91.7382812 C26.1069008,92.0846371 26.462366,92.2578125 26.9207016,92.2578125 C27.3816414,92.2578125 27.7384087,92.0846371 27.9910141,91.7382812 C28.1602858,91.5065093 28.2449204,91.1276068 28.2449204,90.6015625 L28.2449204,86.96875 L29.1550766,86.96875 L29.1550766,90.8515625 C29.1550766,91.4869823 28.9571619,92.0104146 28.5613266,92.421875 C28.1160119,92.8802106 27.5691424,93.109375 26.9207016,93.109375 C26.2722609,93.109375 25.7266934,92.8802106 25.2839829,92.421875 C24.8881476,92.0104146 24.6902329,91.4869823 24.6902329,90.8515625 L24.6902329,86.96875 L25.6003891,86.96875 Z M32.6433579,90.4296875 L34.5105454,93 L33.3972641,93 L31.6746079,90.53125 L31.5105454,90.53125 L31.5105454,93 L30.6003891,93 L30.6003891,86.96875 L31.6667954,86.96875 C32.4636744,86.96875 33.0391894,87.1184881 33.3933579,87.4179688 C33.7839848,87.7513038 33.9792954,88.1914035 33.9792954,88.7382812 C33.9792954,89.1653667 33.8569008,89.5325505 33.6121079,89.8398438 C33.367315,90.147137 33.0444015,90.3437496 32.6433579,90.4296875 Z M31.5105454,89.7382812 L31.7996079,89.7382812 C32.6615913,89.7382812 33.0925766,89.4088575 33.0925766,88.75 C33.0925766,88.1328094 32.67331,87.8242188 31.8347641,87.8242188 L31.5105454,87.8242188 L31.5105454,89.7382812 Z M38.9597641,91.5351562 L36.3777329,91.5351562 L35.7058579,93 L34.7253891,93 L37.7097641,86.5898438 L40.5886704,93 L39.5925766,93 L38.9597641,91.5351562 Z M38.5886704,90.6796875 L37.6941391,88.6289062 L36.7566391,90.6796875 L38.5886704,90.6796875 Z M41.3425766,93 L41.3425766,86.5585938 L45.7410141,91.1601562 L45.7410141,86.96875 L46.6511704,86.96875 L46.6511704,93.3671875 L42.2527329,88.7773438 L42.2527329,93 L41.3425766,93 Z M49.7605454,87.8242188 L49.7605454,93 L48.8503891,93 L48.8503891,87.8242188 L47.4636704,87.8242188 L47.4636704,86.96875 L51.1433579,86.96875 L51.1433579,87.8242188 L49.7605454,87.8242188 Z M56.7957016,89.6445312 L57.8816391,90.9570312 L57.9167954,90.9179688 C58.0339835,90.7903639 58.1446594,90.6653652 58.2488266,90.5429688 C58.3529938,90.4205723 58.4532532,90.2968756 58.5496079,90.171875 L59.1433579,90.78125 C59.0704408,90.8854172 58.9747387,91.0065097 58.8562485,91.1445312 C58.7377583,91.2825528 58.5964837,91.4414054 58.4324204,91.6210938 L59.5496079,93 L58.4167954,93 L57.8152329,92.2617188 C57.2631468,92.8320341 56.6889338,93.1171875 56.0925766,93.1171875 C55.5587198,93.1171875 55.1055993,92.9466163 54.7332016,92.6054688 C54.3686165,92.261717 54.1863266,91.8372421 54.1863266,91.3320312 C54.1863266,90.7304657 54.4753862,90.2304707 55.0535141,89.8320312 L55.4480454,89.5625 C55.4532537,89.5598958 55.4623682,89.5533855 55.4753891,89.5429688 C55.48841,89.532552 55.506639,89.5182293 55.5300766,89.5 C55.1316371,89.0755187 54.9324204,88.6575541 54.9324204,88.2460938 C54.9324204,87.8398417 55.0652315,87.5091159 55.3308579,87.2539062 C55.6016926,86.9986966 55.9506474,86.8710938 56.3777329,86.8710938 C56.7917974,86.8710938 57.1342419,86.9947904 57.4050766,87.2421875 C57.6759113,87.4895846 57.8113266,87.8020814 57.8113266,88.1796875 C57.8113266,88.4401055 57.7371086,88.6757802 57.5886704,88.8867188 C57.4428363,89.0976573 57.178516,89.3502589 56.7957016,89.6445312 Z M56.0730454,90.15625 L56.0222641,90.1914062 C55.6498664,90.44922 55.3959627,90.6562492 55.2605454,90.8125 C55.1277322,90.9687508 55.0613266,91.1341137 55.0613266,91.3085938 C55.0613266,91.558595 55.161586,91.7877594 55.3621079,91.9960938 C55.5704422,92.1966156 55.7996066,92.296875 56.0496079,92.296875 C56.4011721,92.296875 56.806116,92.0664086 57.2644516,91.6054688 L56.0730454,90.15625 Z M56.2683579,89.0039062 L56.3425766,88.9492188 C56.4701814,88.8528641 56.5756491,88.7688806 56.6589829,88.6972656 C56.7423166,88.6256507 56.8022119,88.5651044 56.8386704,88.515625 C56.9167958,88.4192704 56.9558579,88.300782 56.9558579,88.1601562 C56.9558579,88.0013013 56.902473,87.8723963 56.7957016,87.7734375 C56.6889303,87.6744787 56.5457025,87.625 56.3660141,87.625 C56.2019508,87.625 56.0639313,87.6757807 55.9519516,87.7773438 C55.8399719,87.8736984 55.7839829,87.9973951 55.7839829,88.1484375 C55.7839829,88.3255217 55.8542947,88.4999991 55.9949204,88.671875 L56.2214829,88.9453125 C56.2292954,88.9583334 56.2449203,88.9778645 56.2683579,89.0039062 Z M63.6511704,89.375 L65.9988266,86.96875 L67.2136704,86.96875 L64.4871079,89.6992188 L67.2292954,93 L66.0105454,93 L63.8386704,90.3164062 L63.6511704,90.5039062 L63.6511704,93 L62.7410141,93 L62.7410141,86.96875 L63.6511704,86.96875 L63.6511704,89.375 Z M71.5847641,91.5351562 L69.0027329,91.5351562 L68.3308579,93 L67.3503891,93 L70.3347641,86.5898438 L73.2136704,93 L72.2175766,93 L71.5847641,91.5351562 Z M71.2136704,90.6796875 L70.3191391,88.6289062 L69.3816391,90.6796875 L71.2136704,90.6796875 Z M76.0105454,90.4296875 L77.8777329,93 L76.7644516,93 L75.0417954,90.53125 L74.8777329,90.53125 L74.8777329,93 L73.9675766,93 L73.9675766,86.96875 L75.0339829,86.96875 C75.8308619,86.96875 76.4063769,87.1184881 76.7605454,87.4179688 C77.1511723,87.7513038 77.3464829,88.1914035 77.3464829,88.7382812 C77.3464829,89.1653667 77.2240883,89.5325505 76.9792954,89.8398438 C76.7345025,90.147137 76.411589,90.3437496 76.0105454,90.4296875 Z M74.8777329,89.7382812 L75.1667954,89.7382812 C76.0287788,89.7382812 76.4597641,89.4088575 76.4597641,88.75 C76.4597641,88.1328094 76.0404975,87.8242188 75.2019516,87.8242188 L74.8777329,87.8242188 L74.8777329,89.7382812 Z M82.3269516,91.5351562 L79.7449204,91.5351562 L79.0730454,93 L78.0925766,93 L81.0769516,86.5898438 L83.9558579,93 L82.9597641,93 L82.3269516,91.5351562 Z M81.9558579,90.6796875 L81.0613266,88.6289062 L80.1238266,90.6796875 L81.9558579,90.6796875 Z M84.4089829,89.9570312 C84.4089829,89.1080687 84.7201777,88.3789093 85.3425766,87.7695312 C85.9623714,87.1601532 86.7071556,86.8554688 87.5769516,86.8554688 C88.4363309,86.8554688 89.1733027,87.1627573 89.7878891,87.7773438 C90.4050797,88.3919302 90.7136704,89.130204 90.7136704,89.9921875 C90.7136704,90.8593793 90.4037776,91.5950491 89.7839829,92.1992188 C89.1615839,92.8059926 88.4102894,93.109375 87.5300766,93.109375 C86.7514269,93.109375 86.0522151,92.8398464 85.4324204,92.3007812 C84.7501253,91.7044241 84.4089829,90.9231819 84.4089829,89.9570312 Z M85.3269516,89.96875 C85.3269516,90.63542 85.5509077,91.1835916 85.9988266,91.6132812 C86.4441413,92.0429709 86.9584591,92.2578125 87.5417954,92.2578125 C88.174611,92.2578125 88.7084599,92.0390647 89.1433579,91.6015625 C89.5782559,91.158852 89.7957016,90.6197948 89.7957016,89.984375 C89.7957016,89.3411426 89.58086,88.8020855 89.1511704,88.3671875 C88.7240849,87.9296853 88.1954444,87.7109375 87.5652329,87.7109375 C86.9376256,87.7109375 86.407683,87.9296853 85.9753891,88.3671875 C85.5430953,88.7994813 85.3269516,89.3333302 85.3269516,89.96875 Z M92.7683579,89.375 L95.1160141,86.96875 L96.3308579,86.96875 L93.6042954,89.6992188 L96.3464829,93 L95.1277329,93 L92.9558579,90.3164062 L92.7683579,90.5039062 L92.7683579,93 L91.8582016,93 L91.8582016,86.96875 L92.7683579,86.96875 L92.7683579,89.375 Z M100.487108,87.8242188 L98.0691391,87.8242188 L98.0691391,89.2734375 L100.416795,89.2734375 L100.416795,90.1289062 L98.0691391,90.1289062 L98.0691391,92.1445312 L100.487108,92.1445312 L100.487108,93 L97.1589829,93 L97.1589829,86.96875 L100.487108,86.96875 L100.487108,87.8242188 Z M108.608202,87.2929688 L108.608202,88.3710938 C108.082157,87.9309874 107.537892,87.7109375 106.975389,87.7109375 C106.355594,87.7109375 105.833464,87.9335915 105.408983,88.3789062 C104.981897,88.8216168 104.768358,89.363278 104.768358,90.0039062 C104.768358,90.6367219 104.981897,91.1705707 105.408983,91.6054688 C105.836068,92.0403668 106.359501,92.2578125 106.979295,92.2578125 C107.299609,92.2578125 107.571742,92.2057297 107.795702,92.1015625 C107.920702,92.0494789 108.050258,91.9791671 108.184373,91.890625 C108.318489,91.8020829 108.459763,91.6953131 108.608202,91.5703125 L108.608202,92.6679688 C108.087366,92.9622411 107.540496,93.109375 106.967577,93.109375 C106.105593,93.109375 105.369923,92.8085968 104.760545,92.2070312 C104.153772,91.6002574 103.850389,90.8684939 103.850389,90.0117188 C103.850389,89.2434857 104.104293,88.5585968 104.612108,87.9570312 C105.237111,87.2200484 106.045697,86.8515625 107.037889,86.8515625 C107.579558,86.8515625 108.102991,86.9986964 108.608202,87.2929688 Z M110.666795,86.96875 L110.666795,92.1445312 L112.440233,92.1445312 L112.440233,93 L109.756639,93 L109.756639,86.96875 L110.666795,86.96875 Z M114.21367,86.96875 L114.21367,90.6015625 C114.21367,91.1197943 114.298305,91.4986967 114.467577,91.7382812 C114.720182,92.0846371 115.075647,92.2578125 115.533983,92.2578125 C115.994923,92.2578125 116.35169,92.0846371 116.604295,91.7382812 C116.773567,91.5065093 116.858202,91.1276068 116.858202,90.6015625 L116.858202,86.96875 L117.768358,86.96875 L117.768358,90.8515625 C117.768358,91.4869823 117.570443,92.0104146 117.174608,92.421875 C116.729293,92.8802106 116.182424,93.109375 115.533983,93.109375 C114.885542,93.109375 114.339975,92.8802106 113.897264,92.421875 C113.501429,92.0104146 113.303514,91.4869823 113.303514,90.8515625 L113.303514,86.96875 L114.21367,86.96875 Z M119.21367,93 L119.21367,86.96875 L120.11992,86.96875 C120.523568,86.96875 120.84518,86.9999997 121.084764,87.0625 C121.326953,87.1250003 121.531378,87.230468 121.698045,87.3789062 C121.867317,87.5325529 122.00143,87.7239572 122.100389,87.953125 C122.201952,88.184897 122.252733,88.4192696 122.252733,88.65625 C122.252733,89.0885438 122.08737,89.4544256 121.756639,89.7539062 C122.076953,89.8632818 122.329555,90.0546861 122.514452,90.328125 C122.701953,90.5989597 122.795702,90.9140607 122.795702,91.2734375 C122.795702,91.744794 122.629037,92.1432275 122.295702,92.46875 C122.09518,92.6692718 121.869922,92.8085934 121.61992,92.8867188 C121.346482,92.96224 121.004037,93 120.592577,93 L119.21367,93 Z M120.123827,89.5585938 L120.408983,89.5585938 C120.747526,89.5585938 120.995571,89.4837247 121.153123,89.3339844 C121.310676,89.184244 121.389452,88.9635431 121.389452,88.671875 C121.389452,88.3880194 121.308723,88.1725268 121.147264,88.0253906 C120.985805,87.8782545 120.751432,87.8046875 120.444139,87.8046875 L120.123827,87.8046875 L120.123827,89.5585938 Z M120.123827,92.1445312 L120.686327,92.1445312 C121.097787,92.1445312 121.399867,92.0638029 121.592577,91.9023438 C121.795703,91.7278637 121.897264,91.5065118 121.897264,91.2382812 C121.897264,90.9778633 121.799609,90.7591155 121.604295,90.5820312 C121.41419,90.4075512 121.07435,90.3203125 120.584764,90.3203125 L120.123827,90.3203125 L120.123827,92.1445312 Z" id="Restaurant-&amp;-Karaoke"></path>
                        <path d="M66.4860227,35.1381025 C66.5358498,35.727035 66.6026766,36.2663611 66.7023307,36.7566575 C66.8852253,37.6726466 67.3166689,38.3590616 67.9151797,38.849358 C68.6127583,39.4215628 69.5102313,39.7163175 70.4411178,39.7982258 C71.9031019,39.928587 73.116537,39.6021072 74.0966643,38.9479941 L74.1300778,38.9318432 C75.2098592,38.1952449 76.0405053,37.0346844 76.6056026,35.5955202 C76.6718433,35.4322804 76.7386702,35.2523127 76.7884972,35.0729219 C76.0405053,34.9581349 75.5920619,34.663957 75.3095132,34.2059625 C74.9771375,33.6666364 74.9437241,32.9963724 74.9437241,32.1622916 C74.9437241,31.0663349 74.9607239,30.0199847 74.9771375,28.9736344 C75.010551,27.1751118 75.0439644,25.4256188 74.9273105,23.6599749 C74.8610698,22.8749238 74.7614157,22.171781 74.5615214,21.5995763 C74.379213,21.0435224 74.1130779,20.5855279 73.747875,20.2261695 C73.6312211,20.1119592 73.5813941,19.9481425 73.5978077,19.7843259 C73.8803563,16.9723317 73.6476347,14.7977228 72.9166426,13.2281975 C72.3187181,11.9528499 71.371418,11.0697396 70.058915,10.5788663 C70.0753286,12.623114 70.0753286,15.4189572 70.0917423,18.541857 C70.1087421,22.7768645 70.1087421,27.6331063 70.1087421,32.0480814 C70.1087421,34.0427226 68.8290663,34.7781673 67.6988717,35.0233155 C67.2674281,35.1219516 66.8682255,35.1381025 66.5692632,35.1381025 L66.4860227,35.1381025 Z M66.4027823,30.4127986 C66.3863686,31.7371758 66.3863686,32.9634937 66.4197821,34.0750245 L66.5856768,34.0750245 C66.8183984,34.0750245 67.1337743,34.0588736 67.46615,33.9769652 C68.1977283,33.8298763 69.0283745,33.3557308 69.0283745,32.0480814 C69.0283745,28.7936668 69.0119609,25.2952576 69.0119609,21.9756625 C68.4966906,21.8118458 67.9485931,21.6814846 67.3999094,21.5666976 C66.951466,21.485366 66.5024364,21.4034577 66.0375793,21.354428 C66.4361957,24.5753871 66.4197821,27.682136 66.4027823,30.4127986 Z M61.2184247,8.07720094 C61.7671084,9.0583706 62.3152059,10.072419 62.9465439,11.2168285 C63.5948817,12.3941167 64.110152,13.5875559 64.5421818,14.7977228 C64.7250763,12.8353835 64.7250763,10.6936534 64.3921144,8.69901216 C64.0269115,6.45864593 63.2460924,4.39824731 61.8831761,2.92678123 C61.3016652,2.30554682 60.6035003,1.8481291 59.7564406,1.55337443 C59.1081028,1.32437716 58.3935243,1.17786505 57.579878,1.09537989 C58.3606971,2.95965993 59.7394407,5.42844662 61.2184247,8.07720094 Z M44.0034735,39.2254442 C45.2667356,40.4027324 46.4297575,41.4986892 47.6924335,41.1549048 C48.1912901,41.0245437 48.6233199,40.598851 48.9386958,39.7653471 C49.3208986,38.8003284 49.5207929,37.3288623 49.5037931,35.1871322 C49.5037931,34.680108 49.5372066,33.045402 49.5536202,31.2301516 C49.5870336,28.9574835 49.620447,26.4229394 49.620447,25.6055864 L49.620447,17.3812966 C49.620447,17.2174799 49.6866877,17.070391 49.8197552,16.9561807 C50.1351311,16.6781538 50.883123,16.1872806 51.7970096,15.7298629 L51.7970096,14.2745477 C51.780596,13.7184939 51.780596,13.1301382 51.780596,12.5740844 L51.6305287,12.4102677 C51.2817394,12.0670602 50.8995366,11.674823 50.5841607,11.6257934 C50.2183716,11.5606128 49.6866877,11.6419443 49.1215904,11.8547907 C48.6069063,12.0509092 48.0582226,12.361238 47.5593659,12.7534752 L47.609193,31.9494453 C47.609193,34.2878708 47.5265387,36.0535148 46.8617873,37.2636817 C46.2802764,38.3106088 45.3493899,38.9151154 43.8041653,39.0460534 L44.0034735,39.2254442 Z M62.4312736,45.8479068 C60.935876,45.1124622 59.6732001,44.0165055 58.6596593,42.6759774 C57.7123593,41.4496595 56.9813672,40.0104953 56.4332697,38.4409699 C56.2169617,41.3019938 55.4027292,43.0514868 52.6774828,43.6404193 L52.9600315,43.788085 C54.7045643,44.7034973 56.8482997,45.8479068 60.1222297,45.8479068 L62.4312736,45.8479068 Z M56.4332697,32.7506473 C56.6489915,36.2992398 57.679532,39.6182582 59.5237189,42.0380152 C61.2348383,44.2778046 63.6611223,45.7336966 66.8183984,45.8479068 C68.9123068,45.8479068 70.6070125,45.8317559 71.2219369,45.8479068 L73.8475291,45.8479068 C75.7251294,43.9184462 77.851865,41.7271096 79.7962922,42.0057133 C80.4440438,42.1037726 81.2254491,42.5779181 82.0390954,43.2481821 C82.8035009,43.8861443 83.6013199,44.7034973 84.3657254,45.5041225 C84.4817931,45.6189096 84.5820334,45.7336966 84.6816875,45.8479068 C88.8519181,45.6356373 90.3309021,45.0305538 91.5109237,44.5564084 C92.491051,44.1635944 93.2724564,43.8532656 94.1195161,43.8694166 C95.3493649,43.8861443 96.4795595,44.3764407 97.6425814,44.8667372 C98.6062951,45.291853 99.5864224,45.7008179 100.599963,45.8317559 C101.298128,45.9130874 102.693871,45.8807855 104.089615,45.8640578 C104.53774,45.8539292 106.130668,45.8485645 108.868398,45.8479637 L108.868398,45.8479551 C109.161932,45.8478906 109.399941,46.0857949 109.400006,46.3793292 C109.400006,46.3793681 109.400006,46.3794069 109.400006,46.3794458 L109.400006,46.3794458 C109.400006,46.6730067 109.162027,46.9109848 108.868467,46.9109848 L106.000629,46.9109848 C102.660458,46.9600145 101.214887,46.9761654 100.467482,46.8942571 C99.3038737,46.7465913 98.2405059,46.3059014 97.2105516,45.8479068 C96.1471838,45.4060632 95.1002296,44.9480687 94.1031025,44.9319177 C93.4881782,44.9157668 92.7905995,45.2099447 91.9259537,45.5531522 C90.6632778,46.0601763 89.1016395,46.6814107 86.8582501,46.8452274 C85.7280554,47.0251951 85.8282957,47.1394053 85.9279498,47.2536155 C87.7387233,49.3468928 88.2041665,49.9029466 92.657532,49.9029466 C97.2657249,49.9029466 100.713286,49.8656503 103.000214,49.7910575 L103.000215,49.7910931 C103.287696,49.7817163 103.528347,50.0071642 103.537723,50.294645 C103.537908,50.3003025 103.538,50.3059626 103.538,50.3116231 L103.538,50.3116231 C103.538,50.6128681 103.298349,50.8594502 102.997226,50.868036 C100.718836,50.9329664 97.2722718,50.9654478 92.657532,50.9654478 C87.705896,50.9654478 87.1742122,50.3442134 85.0967174,47.9567583 C84.6816875,47.4670387 84.1828308,46.8942571 83.5679064,46.2407208 C82.8205008,45.4389419 82.0390954,44.6706186 81.3415168,44.0655351 C80.6603518,43.5262091 80.061841,43.1333951 79.646811,43.0682145 C78.2504813,42.872096 76.323054,44.8500094 74.6781753,46.5510496 C73.9301834,47.3026451 73.2490184,48.0219388 72.6510938,48.4966611 C68.2973824,51.8975879 65.2895874,50.8835395 61.8497627,49.73913 C60.2212976,49.1830761 58.4931784,48.6108714 56.4830967,48.4966611 C54.8048046,48.3986019 53.1259263,48.8398686 51.1486718,49.3468928 C48.506666,50.0338846 45.3329763,50.8512376 40.7963703,50.8512376 L20.9016202,50.8512376 C20.6035994,50.8512376 20.3620057,50.609644 20.3620057,50.3116231 L20.3620057,50.3116231 C20.3620057,50.0136023 20.6035994,49.7720087 20.9016202,49.7720087 L40.7963703,49.7720087 C45.2169086,49.7720087 48.3073578,48.9708066 50.8661232,48.3166935 C52.9436179,47.7773674 54.6881507,47.3193729 56.5493374,47.43416 C58.7094864,47.5483702 60.5038462,48.1534536 62.1991382,48.7256584 C65.3394145,49.7720087 68.0810744,50.7041487 71.9693426,47.6464295 C72.219064,47.4503109 72.5016127,47.2045859 72.8005749,46.9109848 C69.5600584,46.9271358 67.5329769,46.9271358 66.8348121,46.9109848 L60.1222297,46.9109848 C56.565751,46.9109848 54.3059479,45.7169688 52.4447612,44.7357992 C51.2319123,44.0984138 50.2183716,43.5585109 49.187831,43.5746619 C47.5429523,43.5913896 45.7984195,44.605438 43.9870599,45.6517883 C41.9101513,46.8781061 39.7500024,48.1205749 37.389959,48.0882731 C36.5428992,48.0715453 35.9942155,47.858699 35.3464639,47.6135508 C34.598472,47.3193729 33.7015852,46.9761654 31.9400526,46.9109848 C30.394828,46.8452274 28.4339872,46.8619552 25.9912895,46.8942571 C25.0850208,46.8942571 22.4087775,46.8994199 17.9625596,46.9097455 L17.9625597,46.9097694 C17.66967,46.9104496 17.4316847,46.6735671 17.4310045,46.3806774 C17.4310035,46.3802669 17.4310031,46.3798564 17.4310031,46.3794458 L17.4310031,46.3794458 C17.4310031,46.0857051 17.6687634,45.8473893 17.9625034,45.8467039 C22.4087549,45.8363118 25.0850169,45.825759 25.9912895,45.8150281 C28.4504008,45.7988772 30.4276552,45.7827262 31.973466,45.8479068 C33.917307,45.9130874 34.9144341,46.2897504 35.7286667,46.6162302 C36.2767642,46.8290765 36.758621,47.0090441 37.4069588,47.0090441 C39.4674537,47.041346 41.4781216,45.8807855 43.4389624,44.7357992 C45.3663897,43.6236915 47.2269902,42.5283116 49.1714174,42.4954329 C49.7365147,42.4954329 50.2681986,42.594069 50.7998825,42.7740367 C55.5522103,42.6107968 55.4859696,39.5530776 55.3693157,33.8466041 C55.3693157,33.5028197 55.3529021,33.1434613 55.3529021,32.783526 C55.3359023,32.5216501 55.3194887,32.2603509 55.3194887,31.998475 C55.2866614,28.221462 55.3857293,23.5128859 56.6319917,17.9206226 C56.3998563,17.1684502 56.1671347,16.4001269 55.9678265,15.6479545 L55.884586,15.8111944 C55.4361426,15.5989249 54.62191,15.7621647 53.7742641,16.0563426 C52.5115881,16.4820352 51.2319123,17.2174799 50.7002284,17.6264448 L50.7002284,25.5888587 C50.716642,26.4390903 50.6832286,28.9736344 50.6504014,31.2463026 C50.616988,33.061553 50.6005743,34.6962589 50.6005743,35.1709812 C50.616988,37.4598003 50.3842663,39.0622043 49.9692364,40.1414333 C49.5037931,41.3516002 48.8056283,41.9566837 47.9919819,42.1851041 C46.1307952,42.6921283 44.7514654,41.4006299 43.2560678,40.0104953 C41.9928056,38.8164793 40.6304756,37.5417086 38.9521834,37.5578596 C37.2574777,37.5740105 35.9443885,38.6370885 34.6318855,39.7001665 C33.7179988,40.4356111 32.8205258,41.1549048 31.757158,41.6128994 C31.1088202,41.8909263 30.3115875,42.1199236 29.4141145,42.2998912 C28.5172276,42.479282 27.5365141,42.6107968 26.48956,42.7088561 C25.6090868,42.7901876 24.7784406,42.8553682 23.9307946,42.8882469 C23.4333027,42.9175911 22.423675,42.9469353 20.9019114,42.9762795 L20.9019115,42.9762868 C20.6094242,42.9819269 20.3677442,42.7493912 20.3621042,42.4569039 C20.3620386,42.4535002 20.3620057,42.450096 20.3620057,42.4466917 L20.3620057,42.4466917 C20.3620057,42.1477249 20.6021563,41.9042042 20.9010941,41.9000381 C22.3817112,41.8793852 23.3750024,41.854435 23.8809676,41.8251689 C24.7286136,41.7761392 25.5422599,41.7271096 26.3899059,41.6457781 C27.4034466,41.5477188 28.3507467,41.4167808 29.1983927,41.2529641 C30.0126252,41.0897243 30.7436173,40.8936057 31.3251282,40.6317297 C32.1563606,40.2723713 32.9037663,39.7001665 33.651172,39.095083 L15.039614,39.0631308 C14.7414439,39.0626189 14.5000004,38.8207605 14.5000004,38.5225899 L14.5000004,38.5225899 C14.5000004,38.2252805 14.7410173,37.9842636 15.0383267,37.9842636 C15.0387555,37.9842636 15.0391844,37.9842641 15.0396133,37.9842651 L35.0140882,38.032005 C36.1436967,37.1985011 37.3571318,36.5115093 38.9351836,36.4953584 C40.3813403,36.4792074 41.5607758,37.1327437 42.60773,37.9829754 C44.4355033,38.0810347 45.399217,37.6564957 45.8980736,36.7566575 C46.4461711,35.743186 46.5294116,34.1240541 46.5294116,31.9494453 L46.4795845,16.6291242 C43.9208192,17.0213613 43.6546842,17.740655 43.1892409,18.7708543 C43.1728273,20.8802826 43.2062407,22.7607135 43.2560678,24.4282982 C43.288895,25.5888587 43.3058948,26.6519367 43.3058948,27.5021684 C43.3058948,32.799677 42.5080759,35.2361618 37.0909967,35.2361618 L20.9016076,35.1256355 C20.6029997,35.1235969 20.3620057,34.880952 20.3620057,34.5823371 L20.3620057,34.5823371 C20.3620057,34.2863439 20.6019556,34.046394 20.8979488,34.046394 C20.8991684,34.046394 20.900388,34.0463982 20.9016076,34.0464065 L37.0909967,34.1569328 C41.5607758,34.1569328 42.2255272,32.0642324 42.2255272,27.5021684 C42.2255272,26.5048478 42.1927,25.5236781 42.1757002,24.4611769 C42.1258731,22.7439858 42.0760461,20.8145252 42.1094595,18.6399163 C42.1094595,18.5747357 42.1258731,18.4928274 42.1592866,18.4276468 C42.9236921,16.7600622 43.1065866,15.9421324 43.1065866,15.9421324 C43.1728273,15.6808332 43.4219625,15.5170165 43.6880976,15.5337443 L46.4795845,15.5660462 L46.4631709,12.5089038 C46.4631709,12.361238 46.5294116,12.1979982 46.6624791,12.0999389 C47.3272305,11.543885 48.041809,11.1187692 48.7393876,10.8568932 C49.4867933,10.5788663 50.201958,10.4646561 50.7834689,10.5627154 C51.4312205,10.6936534 51.9464908,11.2001007 52.3949342,11.6580953 C52.5115881,11.7561546 52.6112422,11.8547907 52.6944827,11.9528499 C52.8105504,12.0509092 52.876791,12.1818472 52.876791,12.3450871 L52.876791,14.2745477 L52.876791,15.2389896 C53.0596856,15.173809 53.2425802,15.1080516 53.4084749,15.042871 C54.2397073,14.7648441 55.0539398,14.6016043 55.7351049,14.6835126 C55.4361426,13.440467 55.2198346,12.1979982 55.0703534,10.9555293 C54.6881507,7.48884523 54.9542857,4.02273794 56.2667887,0.327056554 C56.3166158,0.179967628 56.4332697,0.0657574025 56.5991645,0 C58.044735,0.0167277603 59.158516,0.196118569 60.1386433,0.539902883 C61.1357704,0.899838139 61.9828302,1.4391642 62.680995,2.20748754 C64.209806,3.85892125 65.0568658,6.11543843 65.472482,8.51904454 C65.9543388,11.4619767 65.7714443,14.6667848 65.2895874,17.2665095 C65.5387227,18.2805579 65.7386171,19.2778785 65.887512,20.2751991 C66.4696091,20.3242287 67.0511201,20.4061371 67.6162174,20.5203473 C68.0810744,20.6022556 68.5465176,20.7170427 69.0119609,20.8474039 L68.994961,18.541857 C68.994961,15.042871 68.9785474,11.9690009 68.9621338,9.89245134 C68.945134,9.84342169 68.9621338,9.77824111 68.9785474,9.71248371 C69.0447881,9.4344568 69.3437504,9.25448917 69.6432988,9.32024657 C71.6375531,9.82727075 73.0661238,10.9716803 73.9137698,12.7863539 C74.7115887,14.4868172 74.9607239,16.7600622 74.6945889,19.6539647 C75.0937914,20.1119592 75.3927537,20.6345575 75.5920619,21.2563688 C75.8247835,21.9266328 75.9408512,22.7116839 76.0076781,23.5780665 C76.1401594,25.3765892 76.1073322,27.1589609 76.0575051,28.9903622 C76.0405053,30.0199847 76.0240917,31.0830627 76.0405053,32.1461407 C76.0405053,32.8164047 76.0575051,33.3395799 76.2403997,33.6499087 C76.3564674,33.8466041 76.6226025,33.9769652 77.1038731,34.0259949 C77.2041134,33.6176068 77.2867677,33.2086419 77.3700081,32.783526 C77.5693163,31.6062378 77.6525568,30.4451005 77.6689704,29.3825993 C77.7187975,26.6680876 77.7023838,22.8587728 77.6689704,18.3295875 C77.6525568,14.9615395 77.6191434,11.2001007 77.6191434,7.16178868 C77.6191434,6.94894235 77.7522109,6.73667284 77.9679327,6.65476449 C79.3308489,6.09928749 80.061841,5.80453282 80.061841,5.80453282 C81.374344,6.3444357 81.9728548,6.91664047 82.3550575,7.55402581 C82.7536739,8.20813892 82.9201548,8.92800943 82.8369144,9.71248371 L82.8035009,11.0207099 C83.4682523,11.8709416 83.9501092,12.6882946 84.2326578,13.4733457 C84.5480337,14.3397283 84.6318604,15.173809 84.4987929,15.9750111 L84.3493118,18.4599487 L85.6284013,20.3403797 C85.8112959,20.7170427 85.8781228,21.5995763 85.8447093,23.0548914 L86.0938446,30.6579469 C86.6753555,31.9494453 87.3401069,33.0777039 88.1707531,34.0427226 L102.998386,34.0427226 C103.296407,34.0427226 103.538,34.2843163 103.538,34.5823371 L103.538,34.5823371 C103.538,34.8803579 103.296407,35.1219516 102.998386,35.1219516 L89.234707,35.1219516 C89.6333234,35.4651591 90.0483534,35.7754879 90.5137966,36.0535148 C92.5907051,37.3127113 95.4156055,37.9829754 99.4205276,37.9829754 C101.999388,38.0141632 105.146085,38.0155931 108.86062,37.987265 L108.86062,37.9873021 C109.156251,37.9850476 109.397735,38.2228764 109.39999,38.5185076 C109.4,38.5198683 109.400006,38.5212291 109.400006,38.5225899 L109.400006,38.5225899 C109.400006,38.8213679 109.158992,39.064204 108.860222,39.0664546 C105.165914,39.0943131 102.013683,39.0875026 99.4035278,39.0460534 C95.1998837,39.0460534 92.1920888,38.3267597 89.9486993,36.968927 C87.6724826,35.5793693 86.1934987,33.5685771 85.0468904,30.9850034 C85.013477,30.9198228 84.9970634,30.8379145 84.9970634,30.7721571 L84.7643417,23.0710423 C84.7807554,21.8118458 84.7643417,21.0925521 84.6981011,20.8964335 L83.3521846,18.9017923 C83.2853578,18.7870052 83.2525305,18.672795 83.2525305,18.558008 L83.4020117,15.8769518 C83.5180794,15.18996 83.4518387,14.5358469 83.2027035,13.8327041 C82.9365685,13.0972595 82.488125,12.3289361 81.8233736,11.5271573 C81.7401332,11.429098 81.7067197,11.2987368 81.7067197,11.1839498 L81.7565468,9.66345407 C81.80696,9.07452154 81.7067197,8.56807418 81.4241711,8.0939287 C81.1586222,7.66881286 80.7600059,7.27657572 80.2113222,6.8999127 C79.9293597,7.01469975 79.430503,7.21081832 78.7159246,7.50499617 C78.7159246,11.3967961 78.7329244,15.059022 78.749338,18.3134366 C78.7827514,22.8749238 78.8155787,26.6848154 78.7657516,29.3987503 C78.7329244,30.5108579 78.6496839,31.7371758 78.4333759,32.9634937 C78.2504813,33.993693 77.9849325,35.0233155 77.6191434,35.9883342 C76.9713918,37.6230401 76.0240917,38.9479941 74.7444159,39.8143767 C73.5151534,40.6317297 72.0689967,41.0245437 70.3578773,40.860727 C69.1948554,40.7626677 68.0980742,40.3865815 67.217601,39.6672878 C66.4361957,39.0299025 65.8710984,38.1462153 65.6219631,36.9527761 C65.2895874,35.2361618 65.2895874,32.9963724 65.3060011,30.4127986 C65.3394145,24.9514733 65.3892415,17.98638 61.9828302,11.7238527 C61.4675599,10.758834 60.8532218,9.66345407 60.254711,8.58422512 C58.9087946,6.19734677 57.6625322,3.94082959 56.8318861,2.10942825 C55.9842401,5.10139007 55.8347589,7.97971847 56.150721,10.8407423 C56.5329238,14.1764884 57.5464645,17.5116577 58.8589675,21.0106437 C59.357238,22.3355977 59.7728542,24.0354842 60.2212976,25.8997643 C61.8497627,32.7016177 64.0767385,41.9070772 72.5344399,41.9070772 C73.6148075,41.9070772 74.6113484,41.6457781 75.5422349,41.2691151 C76.4391217,40.9097566 77.2867677,40.4194602 78.0347596,39.9776166 C78.5664434,39.7163175 79.0817137,39.4382905 79.5465707,39.1764146 C80.2945626,38.7674497 80.9757277,38.3919403 81.6404791,38.162943 C84.6148606,37.1656224 85.8781228,38.0648837 87.5394151,39.2254442 C88.6696097,40.0104953 89.9985263,40.9587863 92.3585697,41.3677512 C94.8145809,41.7899581 98.7522479,41.9719079 104.171571,41.9136007 L104.171571,41.9136277 C104.465974,41.9104602 104.707203,42.1465533 104.71037,42.4409564 C104.710391,42.4428681 104.710401,42.4447799 104.710401,42.4466917 L104.710401,42.4466917 C104.710401,42.7458733 104.469244,42.9891329 104.170074,42.9917297 C98.6734652,43.0394253 94.6753325,42.8468873 92.1756751,42.4141014 C89.5834964,41.9728346 88.1379258,40.9587863 86.9080771,40.0918268 C85.5123336,39.111234 84.431966,38.3590616 81.9892684,39.1764146 C81.4077575,39.3725331 80.7764195,39.7163175 80.0952544,40.1091314 C79.646811,40.3537028 79.1813678,40.6155788 78.6830973,40.844576 C77.8852784,41.3181447 76.9713918,41.8418966 75.957851,42.2670125 C74.9108969,42.6921283 73.7642886,42.9863062 72.5344399,42.9863062 C63.2126789,42.9863062 60.8696354,33.2905502 59.158516,26.1610634 C58.7094864,24.2973602 58.31087,22.6297756 57.8454268,21.3873067 C57.6625322,20.9125844 57.4966375,20.4390158 57.3301565,19.9810212 C56.3834427,25.0172307 56.3834427,29.300691 56.4332697,32.7506473 Z" id="Fill-1"></path>
                        <path d="M107.407166,77.4785849 L107.407166,64.0130024 L114.600006,64.0130024 L114.600006,65.4741551 L109.014696,65.4741551 L109.014696,69.3361938 L114.600006,69.3361938 L114.600006,70.818704 L109.014696,70.818704 L109.014696,75.9754535 L114.600006,75.9754535 L114.600006,77.4785849 L107.407166,77.4785849 Z M103.662232,67.2284221 C103.006981,66.539088 102.330087,66.0169321 101.589757,65.6833121 C100.848681,65.3489555 100.02402,65.1825138 99.1359226,65.1825138 C98.4164894,65.1825138 97.6970561,65.3283344 97.020162,65.6000912 C96.3432679,65.892469 95.7298092,66.3093099 95.2432216,66.8108447 C94.7140949,67.3536217 94.3334818,67.9383773 94.0580971,68.6056174 C93.8043551,69.2529729 93.6774841,69.9835492 93.6774841,70.7767253 C93.6774841,71.4034597 93.7409196,71.9882153 93.9103297,72.5096347 C94.0580971,73.0524117 94.2909427,73.5333254 94.6081203,73.9707874 C95.1581434,74.7433424 95.8141411,75.3280981 96.6179063,75.7456755 C97.4216714,76.1426318 98.2896184,76.3510523 99.1986118,76.3510523 C100.066559,76.3510523 100.89122,76.183874 101.63155,75.8296328 C102.37188,75.4739188 103.04952,74.9311418 103.662232,74.2425441 L103.662232,76.3510523 C102.986085,76.8518505 102.266651,77.2068282 101.483783,77.4579638 C100.700914,77.7083629 99.8971487,77.832826 99.0724871,77.832826 C98.3530539,77.832826 97.6336206,77.728984 96.9567265,77.5205636 C96.2798324,77.2907855 95.644731,76.9984077 95.0312724,76.5808303 C94.0580971,75.9128537 93.2968711,75.0776989 92.7677443,74.0753659 C92.2386176,73.0737693 91.9848756,71.9882153 91.9848756,70.7980829 C91.9848756,69.7751287 92.1542857,68.8361319 92.4931059,67.980356 C92.8528225,67.1231072 93.381203,66.3512886 94.1006362,65.6626909 C94.7984268,64.9947144 95.5812955,64.5138007 96.4275998,64.1801807 C97.273904,63.8458242 98.1836438,63.7000035 99.1777154,63.7000035 C99.9814806,63.7000035 100.743453,63.804582 101.483783,64.0549811 C102.224112,64.2847592 102.943545,64.6390003 103.662232,65.1405351 L103.662232,67.2284221 Z M86.7174899,77.4785849 L88.3466629,77.4785849 L88.3466629,64.0130024 L86.7174899,64.0130024 L86.7174899,77.4785849 Z M83.1001736,70.7767253 C83.1001736,71.7370797 82.909867,72.6355708 82.5501504,73.4913467 C82.1904338,74.3471226 81.6613071,75.0990565 80.9844129,75.7670331 C80.2866224,76.413652 79.4828572,76.9358079 78.5940139,77.2907855 C77.7059168,77.6457631 76.7745344,77.832826 75.8013591,77.832826 C74.8498266,77.832826 73.9184441,77.6457631 73.030347,77.2907855 C72.1415037,76.9358079 71.3377385,76.413652 70.6608444,75.7670331 C69.9630539,75.0990565 69.4339271,74.3265015 69.0533141,73.4707256 C68.6935975,72.6355708 68.5241874,71.7164586 68.5241874,70.7767253 C68.5241874,69.7957498 68.6935975,68.8987317 69.0533141,68.0422193 C69.4339271,67.1864434 69.9630539,66.435246 70.6608444,65.7672694 C71.3377385,65.0985564 72.1206073,64.5977581 73.0094506,64.2427805 C73.9184441,63.8878029 74.8498266,63.7000035 75.8013591,63.7000035 C76.7745344,63.7000035 77.7059168,63.8878029 78.6149103,64.2427805 C79.5037536,64.5977581 80.2866224,65.0985564 80.9844129,65.7672694 C81.6613071,66.4146249 82.1904338,67.1864434 82.5501504,68.0422193 C82.909867,68.8987317 83.1001736,69.7957498 83.1001736,70.7767253 Z M75.8013591,76.3296947 C76.5424351,76.3296947 77.261122,76.183874 77.9380161,75.9128537 C78.6149103,75.6204759 79.2074725,75.2235196 79.7574957,74.6807426 C80.2866224,74.1585868 80.6881318,73.5539465 80.9635165,72.8859699 C81.2597976,72.2172569 81.3866687,71.5080381 81.3866687,70.7767253 C81.3866687,70.0049068 81.2597976,69.2949515 80.9635165,68.6056174 C80.6881318,67.9383773 80.2866224,67.3330006 79.7574957,66.8108447 C79.2283689,66.2886888 78.6149103,65.892469 77.9380161,65.6000912 C77.261122,65.3283344 76.5633315,65.2031349 75.8013591,65.2031349 C75.0401331,65.2031349 74.3206998,65.3283344 73.6438057,65.6000912 C72.9669115,65.892469 72.3743493,66.2886888 71.8459689,66.8108447 C71.3168421,67.3536217 70.9145864,67.9589984 70.639948,68.6262385 C70.3645633,69.2949515 70.2167959,70.0049068 70.2167959,70.7767253 C70.2167959,71.5080381 70.3436669,72.2172569 70.6190516,72.8859699 C70.9145864,73.5539465 71.3168421,74.1379657 71.8459689,74.6807426 C72.3952457,75.2235196 73.0094506,75.641097 73.6647021,75.9128537 C74.3415962,76.183874 75.0610295,76.3296947 75.8013591,76.3296947 Z M61.3529902,78.0000043 L55.5773742,64.0130024 L57.3543146,64.0130024 L61.3529902,74.3051439 L65.3300232,64.0130024 L67.0860672,64.0130024 L61.3529902,78.0000043 Z M43.7089646,77.4785849 L43.7089646,71.3202388 L39.0975766,64.0130024 L40.9804916,64.0130024 L44.5343724,69.8583496 L48.0889995,64.0130024 L49.9502718,64.0130024 L45.3388839,71.3202388 L45.3388839,77.4785849 L43.7089646,77.4785849 Z M31.7144302,77.4785849 L31.7144302,65.5367549 L27.8642683,65.5367549 L27.8642683,64.0130024 L37.1937652,64.0130024 L37.1937652,65.5367549 L33.3644996,65.5367549 L33.3644996,77.4785849 L31.7144302,77.4785849 Z M23.4431868,77.4785849 L25.0723598,77.4785849 L25.0723598,64.0130024 L23.4431868,64.0130024 L23.4431868,77.4785849 Z M19.6989995,67.2284221 C19.0430018,66.539088 18.3653613,66.0169321 17.6250317,65.6833121 C16.8854483,65.3489555 16.0600405,65.1825138 15.1711971,65.1825138 C14.4517639,65.1825138 13.7330769,65.3283344 13.0561828,65.6000912 C12.3785424,65.892469 11.76583,66.3093099 11.2784961,66.8108447 C10.7501157,67.3536217 10.3695026,67.9383773 10.0941179,68.6056174 C9.84037591,69.2529729 9.7135049,69.9835492 9.7135049,70.7767253 C9.7135049,71.4034597 9.77694041,71.9882153 9.94635052,72.5096347 C10.0941179,73.0524117 10.3269635,73.5333254 10.6441411,73.9707874 C11.1941642,74.7433424 11.8501619,75.3280981 12.6539271,75.7456755 C13.4576922,76.1426318 14.3039965,76.3510523 15.2346326,76.3510523 C16.1025796,76.3510523 16.9272411,76.183874 17.6675708,75.8296328 C18.4079004,75.4739188 19.0847946,74.9311418 19.6989995,74.2425441 L19.6989995,76.3510523 C19.0213591,76.8518505 18.3019258,77.2068282 17.5198034,77.4579638 C16.7369346,77.7083629 15.9331695,77.832826 15.1077616,77.832826 C14.3883284,77.832826 13.6688951,77.728984 12.9927473,77.5205636 C12.3158532,77.2907855 11.6807518,76.9984077 11.0672932,76.5808303 C10.0732215,75.9128537 9.33214558,75.0776989 8.80376515,74.0753659 C8.27463842,73.0737693 8,71.9882153 8,70.7980829 C8,69.7751287 8.19030651,68.8361319 8.52838043,67.980356 C8.88809705,67.1231072 9.41722379,66.3512886 10.136657,65.6626909 C10.8344476,64.9947144 11.6173163,64.5138007 12.4636206,64.1801807 C13.3099248,63.8458242 14.2196646,63.7000035 15.2137362,63.7000035 C16.0175014,63.7000035 16.7787274,63.804582 17.5198034,64.0549811 C18.260133,64.2847592 18.9795663,64.6390003 19.6989995,65.1405351 L19.6989995,67.2284221 Z" id="Fill-7"></path>
                    </g>
                </g>
            </g>
        </g>
    </g>
</svg>