<?xml version="1.0" encoding="UTF-8" standalone="no"?>
<svg width="339px" height="46px" viewBox="0 0 339 46" version="1.1" xmlns="http://www.w3.org/2000/svg" xmlns:xlink="http://www.w3.org/1999/xlink">
    <!-- Generator: Sketch 50 (54983) - http://www.bohemiancoding.com/sketch -->
    <title>Fill 7</title>
    <desc>Created with Sketch.</desc>
    <defs></defs>
    <g id="Page-1" stroke="none" stroke-width="1" fill="none" fill-rule="evenodd">
        <g id="Restaurant" transform="translate(-551.000000, -314.000000)" fill="#FFFFFF">
            <g id="Hero" transform="translate(0.000000, 75.000000)">
                <g id="Group-7" transform="translate(551.000000, 239.000000)">
                    <path d="M316.125961,44.3227069 L316.125961,1.00684967 L339,1.00684967 L339,5.70706082 L321.238088,5.70706082 L321.238088,18.1304012 L339,18.1304012 L339,22.899315 L321.238088,22.899315 L321.238088,39.4874594 L339,39.4874594 L339,44.3227069 L316.125961,44.3227069 Z M304.216651,11.3501571 C302.132878,9.13271875 299.980278,7.4530566 297.625947,6.37987331 C295.269242,5.30432096 292.646726,4.76891384 289.822477,4.76891384 C287.534599,4.76891384 285.24672,5.23798733 283.094121,6.11216975 C280.941521,7.05268579 278.990654,8.39357264 277.44325,10.0069012 C275.760568,11.7528969 274.550176,13.633929 273.674421,15.7802956 C272.867493,17.8626976 272.464029,20.2128032 272.464029,22.7642787 C272.464029,24.7803471 272.665761,26.6613792 273.204504,28.3386723 C273.674421,30.0846681 274.414897,31.631663 275.423557,33.0388835 C277.172692,35.5240253 279.258839,37.4050574 281.814902,38.7483133 C284.370966,40.0252356 287.131135,40.695679 290.021836,40.695679 C292.782005,40.695679 295.404521,40.1579029 297.758853,39.018386 C300.113184,37.8741309 302.268157,36.1281351 304.216651,33.9130659 L304.216651,40.695679 C302.066425,42.3066385 299.778546,43.4485245 297.288936,44.2563733 C294.799325,45.061853 292.243262,45.4622238 289.620745,45.4622238 C287.332867,45.4622238 285.044988,45.1281866 282.892389,44.4577432 C280.739789,43.7185971 278.720095,42.7780811 276.769228,41.4348252 C273.674421,39.2860895 271.253637,36.5995777 269.570955,33.3752897 C267.888272,30.1533708 267.081344,26.6613792 267.081344,22.8329814 C267.081344,19.5423598 267.620087,16.5218108 268.697573,13.7689653 C269.841513,11.0113818 271.521822,8.52860895 273.8097,6.31353968 C276.028753,4.16480404 278.518363,2.61780914 281.209706,1.54462584 C283.901049,0.469073492 286.794123,0 289.955383,0 C292.511447,0 294.934604,0.336406242 297.288936,1.14188598 C299.643267,1.88103209 301.931146,3.020549 304.216651,4.63387753 L304.216651,11.3501571 Z M250.330465,44.3227069 L255.511419,44.3227069 L255.511419,1.00684967 L250.330465,1.00684967 L250.330465,44.3227069 Z M238.826993,22.7642787 C238.826993,25.8535304 238.221797,28.7437812 237.077857,31.4966267 C235.933918,34.2494721 234.251236,36.6682804 232.098636,38.817016 C229.879584,40.897049 227.32352,42.5767111 224.496899,43.7185971 C221.67265,44.8604831 218.710749,45.4622238 215.615943,45.4622238 C212.589962,45.4622238 209.628061,44.8604831 206.803813,43.7185971 C203.977191,42.5767111 201.421127,40.897049 199.268528,38.817016 C197.049476,36.6682804 195.366793,34.1831385 194.156401,31.430293 C193.012462,28.7437812 192.473718,25.7871968 192.473718,22.7642787 C192.473718,19.6086934 193.012462,16.7231807 194.156401,13.9679662 C195.366793,11.2151208 197.049476,8.79868157 199.268528,6.64994592 C201.421127,4.49884122 203.910738,2.88788175 206.73736,1.74599578 C209.628061,0.604109801 212.589962,0 215.615943,0 C218.710749,0 221.67265,0.604109801 224.563351,1.74599578 C227.389973,2.88788175 229.879584,4.49884122 232.098636,6.64994592 C234.251236,8.73234794 235.933918,11.2151208 237.077857,13.9679662 C238.221797,16.7231807 238.826993,19.6086934 238.826993,22.7642787 Z M215.615943,40.6269764 C217.972647,40.6269764 220.258153,40.1579029 222.410752,39.2860895 C224.563351,38.3455735 226.447766,37.0686512 228.196901,35.3226554 C229.879584,33.6429933 231.156429,31.6979966 232.032183,29.549261 C232.974391,27.3981563 233.377855,25.1167534 233.377855,22.7642787 C233.377855,20.2815059 232.974391,17.9977339 232.032183,15.7802956 C231.156429,13.633929 229.879584,11.6865633 228.196901,10.0069012 C226.514219,8.32723902 224.563351,7.05268579 222.410752,6.11216975 C220.258153,5.23798733 218.0391,4.83524746 215.615943,4.83524746 C213.195158,4.83524746 210.90728,5.23798733 208.75468,6.11216975 C206.602081,7.05268579 204.717666,8.32723902 203.037357,10.0069012 C201.354675,11.7528969 200.075456,13.7002627 199.202075,15.8466292 C198.326321,17.9977339 197.856404,20.2815059 197.856404,22.7642787 C197.856404,25.1167534 198.259868,27.3981563 199.135622,29.549261 C200.075456,31.6979966 201.354675,33.5766596 203.037357,35.3226554 C204.784119,37.0686512 206.73736,38.4119071 208.821133,39.2860895 C210.973732,40.1579029 213.261611,40.6269764 215.615943,40.6269764 Z M169.668506,46 L151.301397,1.00684967 L156.952268,1.00684967 L169.668506,34.1144358 L182.315917,1.00684967 L187.900335,1.00684967 L169.668506,46 Z M113.558521,44.3227069 L113.558521,24.5126436 L98.8937888,1.00684967 L104.88167,1.00684967 L116.183411,19.8100633 L127.487524,1.00684967 L133.406579,1.00684967 L118.741847,24.5126436 L118.741847,44.3227069 L113.558521,44.3227069 Z M75.4145536,44.3227069 L75.4145536,5.90843076 L63.1706059,5.90843076 L63.1706059,1.00684967 L92.8394545,1.00684967 L92.8394545,5.90843076 L80.6619597,5.90843076 L80.6619597,44.3227069 L75.4145536,44.3227069 Z M49.1110699,44.3227069 L54.2920231,44.3227069 L54.2920231,1.00684967 L49.1110699,1.00684967 L49.1110699,44.3227069 Z M37.2041334,11.3501571 C35.1179868,9.13271875 32.963014,7.4530566 30.6086826,6.37987331 C28.2567244,5.30432096 25.6318347,4.76891384 22.8052129,4.76891384 C20.5173343,4.76891384 18.2318291,5.23798733 16.0792296,6.11216975 C13.9242569,7.05268579 11.9757628,8.39357264 10.4259861,10.0069012 C8.74567692,11.7528969 7.53528473,13.633929 6.65953038,15.7802956 C5.85260225,17.8626976 5.44913818,20.2128032 5.44913818,22.7642787 C5.44913818,24.7803471 5.65087022,26.6613792 6.18961341,28.3386723 C6.65953038,30.0846681 7.4000056,31.631663 8.40866576,33.0388835 C10.1578011,35.5240253 12.2439477,37.4050574 14.8000112,38.7483133 C17.3560747,40.0252356 20.0474174,40.695679 23.0069449,40.695679 C25.7671138,40.695679 28.3896302,40.1579029 30.7439617,39.018386 C33.0982932,37.8741309 35.2508926,36.1281351 37.2041334,33.9130659 L37.2041334,40.695679 C35.0491606,42.3066385 32.761282,43.4485245 30.2740447,44.2563733 C27.7844341,45.061853 25.2283706,45.4622238 22.6034809,45.4622238 C20.3156023,45.4622238 18.0277237,45.1281866 15.8774976,44.4577432 C13.7248981,43.7185971 11.7052045,42.7780811 9.75433708,41.4348252 C6.59307747,39.2860895 4.23637267,36.5995777 2.55606351,33.3752897 C0.873381033,30.1533708 0,26.6613792 0,22.8329814 C0,19.5423598 0.605196096,16.5218108 1.68030916,13.7689653 C2.82424845,11.0113818 4.50693093,8.52860895 6.7948095,6.31353968 C9.01386186,4.16480404 11.5034725,2.61780914 14.1948151,1.54462584 C16.8861577,0.469073492 19.7792324,0 22.940492,0 C25.4965555,0 27.9173399,0.336406242 30.2740447,1.14188598 C32.6283762,1.88103209 34.9162548,3.020549 37.2041334,4.63387753 L37.2041334,11.3501571 Z" id="Fill-7"></path>
                </g>
            </g>
        </g>
    </g>
</svg>