<?xml version="1.0" encoding="UTF-8" standalone="no"?>
<svg width="347px" height="54px" viewBox="0 0 347 54" version="1.1" xmlns="http://www.w3.org/2000/svg" xmlns:xlink="http://www.w3.org/1999/xlink">
    <!-- Generator: Sketch 50 (54983) - http://www.bohemiancoding.com/sketch -->
    <title>Fill 7</title>
    <desc>Created with Sketch.</desc>
    <defs>
        <path d="M315.832992,44.3730397 L315.832992,1.00799304 L338.685832,1.00799304 L338.685832,5.71354175 L320.940381,5.71354175 L320.940381,18.1509901 L338.685832,18.1509901 L338.685832,22.9253195 L320.940381,22.9253195 L320.940381,39.5323013 L338.685832,39.5323013 L338.685832,44.3730397 L315.832992,44.3730397 Z M303.934719,11.3630463 C301.852877,9.14308985 299.702272,7.46152028 297.350122,6.38711828 C294.995602,5.31034454 292.375516,4.77432941 289.553885,4.77432941 C287.268126,4.77432941 284.982368,5.24393558 282.831763,6.11911072 C280.681159,7.06069481 278.732099,8.40310437 277.18613,10.018265 C275.505007,11.7662435 274.295737,13.6494117 273.420794,15.7982157 C272.614614,17.8829825 272.211523,20.2357568 272.211523,22.7901298 C272.211523,24.8084876 272.413069,26.6916558 272.951312,28.3708537 C273.420794,30.1188322 274.160583,31.6675839 275.168308,33.0764024 C276.915823,35.5643664 279.000036,37.4475346 281.553731,38.7923159 C284.107425,40.0706882 286.865036,40.741893 289.753059,40.741893 C292.510669,40.741893 295.130755,40.2035061 297.482905,39.0626952 C299.835055,37.9171407 301.98803,36.1691622 303.934719,33.9515775 L303.934719,40.741893 C301.786485,42.3546819 299.500727,43.4978646 297.013424,44.3066308 C294.52612,45.1130252 291.972426,45.5138507 289.35234,45.5138507 C287.066581,45.5138507 284.780823,45.1794341 282.630218,44.5082294 C280.479614,43.7682439 278.461792,42.8266598 276.512733,41.4818785 C273.420794,39.3307027 271.002253,36.6411401 269.32113,33.4131906 C267.640007,30.1876129 266.833827,26.6916558 266.833827,22.8589105 C266.833827,19.5645521 267.37207,16.5405729 268.448558,13.7846014 C269.591437,11.0238863 271.270189,8.53829403 273.555948,6.32070933 C275.772944,4.16953358 278.260247,2.62078192 280.949095,1.54637992 C283.637944,0.469606172 286.528337,0 289.686667,0 C292.240362,0 294.661274,0.336788264 297.013424,1.1431827 C299.365573,1.88316818 301.651331,3.02397913 303.934719,4.63913976 L303.934719,11.3630463 Z M250.098472,44.3730397 L255.274624,44.3730397 L255.274624,1.00799304 L250.098472,1.00799304 L250.098472,44.3730397 Z M238.60566,22.7901298 C238.60566,25.8828896 238.001025,28.7764226 236.858146,31.5323942 C235.715267,34.2883658 234.034144,36.7099208 231.883539,38.8610966 C229.666543,40.9434916 227.112849,42.6250612 224.288846,43.7682439 C221.467215,44.9114266 218.508059,45.5138507 215.416121,45.5138507 C212.392945,45.5138507 209.433789,44.9114266 206.612158,43.7682439 C203.788155,42.6250612 201.234461,40.9434916 199.083856,38.8610966 C196.86686,36.7099208 195.185737,34.2219568 193.976467,31.4659852 C192.833588,28.7764226 192.295344,25.8164807 192.295344,22.7901298 C192.295344,19.630961 192.833588,16.7421715 193.976467,13.9838282 C195.185737,11.2278566 196.86686,8.80867334 199.083856,6.65749759 C201.234461,4.5039501 203.721764,2.89116123 206.545766,1.74797853 C209.433789,0.604795827 212.392945,0 215.416121,0 C218.508059,0 221.467215,0.604795827 224.355238,1.74797853 C227.17924,2.89116123 229.666543,4.5039501 231.883539,6.65749759 C234.034144,8.74226439 235.715267,11.2278566 236.858146,13.9838282 C238.001025,16.7421715 238.60566,19.630961 238.60566,22.7901298 Z M215.416121,40.6731123 C217.770641,40.6731123 220.054029,40.2035061 222.204633,39.3307027 C224.355238,38.3891186 226.237906,37.1107463 227.98542,35.3627678 C229.666543,33.6811982 230.942205,31.7339928 231.817148,29.5828171 C232.758482,27.4292696 233.161572,25.1452759 233.161572,22.7901298 C233.161572,20.3045375 232.758482,18.0181721 231.817148,15.7982157 C230.942205,13.6494117 229.666543,11.6998346 227.98542,10.018265 C226.304297,8.33669542 224.355238,7.06069481 222.204633,6.11911072 C220.054029,5.24393558 217.837033,4.84073836 215.416121,4.84073836 C212.99758,4.84073836 210.711822,5.24393558 208.561217,6.11911072 C206.410612,7.06069481 204.527944,8.33669542 202.849192,10.018265 C201.168069,11.7662435 199.890036,13.7158207 199.017465,15.8646247 C198.142522,18.0181721 197.673041,20.3045375 197.673041,22.7901298 C197.673041,25.1452759 198.076131,27.4292696 198.951073,29.5828171 C199.890036,31.7339928 201.168069,33.6147892 202.849192,35.3627678 C204.594336,37.1107463 206.545766,38.4555276 208.627608,39.3307027 C210.778213,40.2035061 213.063971,40.6731123 215.416121,40.6731123 Z M169.511265,46.0522375 L151.161179,1.00799304 L156.806812,1.00799304 L169.511265,34.1531761 L182.146956,1.00799304 L187.726198,1.00799304 L169.511265,46.0522375 Z M113.453281,44.3730397 L113.453281,24.5404801 L98.8021391,1.00799304 L104.784471,1.00799304 L116.075738,19.8325596 L127.369375,1.00799304 L133.282945,1.00799304 L118.631804,24.5404801 L118.631804,44.3730397 L113.453281,44.3730397 Z M75.3446632,44.3730397 L75.3446632,5.91514036 L63.1120626,5.91514036 L63.1120626,1.00799304 L92.7534156,1.00799304 L92.7534156,5.91514036 L80.5872063,5.91514036 L80.5872063,44.3730397 L75.3446632,44.3730397 Z M49.0655563,44.3730397 L54.2417081,44.3730397 L54.2417081,1.00799304 L49.0655563,1.00799304 L49.0655563,44.3730397 Z M37.1696545,11.3630463 C35.0854413,9.14308985 32.9324656,7.46152028 30.580316,6.38711828 C28.2305375,5.31034454 25.6080804,4.77432941 22.7840782,4.77432941 C20.4983199,4.77432941 18.2149327,5.24393558 16.0643282,6.11911072 C13.9113526,7.06069481 11.9646642,8.40310437 10.4163238,10.018265 C8.73757188,11.7662435 7.52830141,13.6494117 6.65335867,15.7982157 C5.84717836,17.8829825 5.4440882,20.2357568 5.4440882,22.7901298 C5.4440882,24.8084876 5.64563328,26.6916558 6.18387719,28.3708537 C6.65335867,30.1188322 7.39314765,31.6675839 8.40087304,33.0764024 C10.1483874,35.5643664 12.2326006,37.4475346 14.7862953,38.7923159 C17.33999,40.0706882 20.0288384,40.741893 22.9856233,40.741893 C25.7432342,40.741893 28.3633202,40.2035061 30.7154698,39.0626952 C33.0676194,37.9171407 35.2182239,36.1691622 37.1696545,33.9515775 L37.1696545,40.741893 C35.0166788,42.3546819 32.7309205,43.4978646 30.2459883,44.3066308 C27.7586849,45.1130252 25.2049902,45.5138507 22.5825331,45.5138507 C20.2967748,45.5138507 18.0110165,45.1794341 15.8627831,44.5082294 C13.7121786,43.7682439 11.6943567,42.8266598 9.74529726,41.4818785 C6.58696735,39.3307027 4.23244662,36.6411401 2.55369468,33.4131906 C0.872571628,30.1876129 0,26.6916558 0,22.8589105 C0,19.5645521 0.604635232,16.5405729 1.67875194,13.7846014 C2.82163108,11.0238863 4.50275414,8.53829403 6.78851242,6.32070933 C9.00550827,4.16953358 11.4928116,2.62078192 14.1816601,1.54637992 C16.8705085,0.469606172 19.760902,0 22.919232,0 C25.4729266,0 27.8914676,0.336788264 30.2459883,1.1431827 C32.5981379,1.88316818 34.8838962,3.02397913 37.1696545,4.63913976 L37.1696545,11.3630463 Z" id="path-1"></path>
        <filter x="-2.4%" y="-8.7%" width="104.7%" height="134.7%" filterUnits="objectBoundingBox" id="filter-2">
            <feOffset dx="0" dy="4" in="SourceAlpha" result="shadowOffsetOuter1"></feOffset>
            <feGaussianBlur stdDeviation="2" in="shadowOffsetOuter1" result="shadowBlurOuter1"></feGaussianBlur>
            <feColorMatrix values="0 0 0 0 0   0 0 0 0 0   0 0 0 0 0  0 0 0 0.5 0" type="matrix" in="shadowBlurOuter1"></feColorMatrix>
        </filter>
    </defs>
    <g id="Page-1" stroke="none" stroke-width="1" fill="none" fill-rule="evenodd">
        <g id="Home" transform="translate(-547.000000, -471.000000)">
            <g id="Group-5" transform="translate(551.000000, 471.000000)">
                <g id="Group-8">
                    <g id="Fill-7">
                        <use fill="black" fill-opacity="1" filter="url(#filter-2)" xlink:href="#path-1"></use>
                        <use fill="#FFFFFF" fill-rule="evenodd" xlink:href="#path-1"></use>
                    </g>
                </g>
            </g>
        </g>
    </g>
</svg>