<svg width="123" height="94" viewBox="0 0 123 94" xmlns="http://www.w3.org/2000/svg">
    <title>
        Group 2
    </title>
    <g fill="#FFF" fill-rule="evenodd">
        <path d="M2.244 90.43L4.111 93H2.998l-1.723-2.469h-.164V93h-.91v-6.031h1.067c.796 0 1.372.15 1.726.449.39.333.586.773.586 1.32 0 .427-.122.795-.367 1.102a1.637 1.637 0 0 1-.969.59zm-1.133-.692h.29c.861 0 1.292-.33 1.292-.988 0-.617-.419-.926-1.257-.926H1.11v1.914zm7.235-1.914H5.928v1.45h2.347v.855H5.928v2.016h2.418V93H5.018v-6.031h3.328v.855zm4.605.043l-.738.438c-.138-.24-.27-.396-.395-.47a.92.92 0 0 0-.504-.124.93.93 0 0 0-.628.215.666.666 0 0 0-.25.531c0 .294.218.531.656.711l.601.246c.49.198.848.44 1.075.725.226.285.34.634.34 1.049 0 .554-.185 1.013-.555 1.374-.373.365-.835.547-1.387.547-.523 0-.956-.155-1.297-.464-.336-.31-.545-.747-.629-1.31l.922-.202c.042.354.115.599.219.734.187.26.46.39.82.39.284 0 .52-.094.707-.284a.987.987 0 0 0 .281-.723c0-.117-.016-.225-.048-.322a.818.818 0 0 0-.153-.27 1.218 1.218 0 0 0-.267-.23c-.11-.072-.24-.14-.39-.205l-.583-.243c-.825-.348-1.238-.859-1.238-1.53 0-.454.173-.833.52-1.138.346-.307.777-.46 1.292-.46.696 0 1.239.338 1.63 1.015zm2.918-.043V93h-.91v-5.176h-1.387v-.855h3.68v.855h-1.383zm5.738 3.711h-2.582L18.354 93h-.981l2.984-6.41 2.88 6.41h-.997l-.633-1.465zm-.37-.855l-.895-2.051-.938 2.05h1.832zm3.663-3.711v3.633c0 .518.085.897.254 1.136.253.347.608.52 1.067.52.46 0 .817-.173 1.07-.52.17-.231.254-.61.254-1.136v-3.633h.91v3.883c0 .635-.198 1.158-.594 1.57a2.198 2.198 0 0 1-1.64.687c-.649 0-1.194-.229-1.637-.687-.396-.412-.594-.935-.594-1.57v-3.883h.91zm7.043 3.46L33.811 93h-1.114l-1.722-2.469h-.164V93h-.91v-6.031h1.066c.797 0 1.372.15 1.726.449.391.333.586.773.586 1.32 0 .427-.122.795-.367 1.102a1.637 1.637 0 0 1-.969.59zm-1.132-.69h.289c.862 0 1.293-.33 1.293-.989 0-.617-.42-.926-1.258-.926h-.324v1.914zm7.449 1.796h-2.582L35.006 93h-.98l2.984-6.41L39.889 93h-.996l-.633-1.465zm-.371-.855l-.895-2.051-.937 2.05h1.832zM40.643 93v-6.441l4.398 4.601V86.97h.91v6.398l-4.398-4.59V93h-.91zm8.418-5.176V93h-.91v-5.176h-1.387v-.855h3.68v.855H49.06zm7.035 1.82l1.086 1.313.035-.039c.117-.128.228-.253.332-.375.104-.122.204-.246.3-.371l.594.61a4.806 4.806 0 0 1-.287.363c-.118.138-.26.296-.424.476L58.85 93h-1.133l-.602-.738c-.552.57-1.126.855-1.722.855-.534 0-.987-.17-1.36-.512a1.68 1.68 0 0 1-.547-1.273c0-.602.29-1.102.868-1.5l.394-.27a5.403 5.403 0 0 1 .082-.063c-.398-.423-.598-.841-.598-1.253 0-.406.133-.737.399-.992.27-.255.62-.383 1.047-.383.414 0 .756.124 1.027.371.27.248.406.56.406.938a1.2 1.2 0 0 1-.222.707c-.146.21-.41.463-.793.758zm-.723.512l-.05.035c-.373.258-.627.465-.762.621a.756.756 0 0 0-.2.497c0 .25.1.479.301.687.208.2.438.3.688.3.351 0 .756-.23 1.214-.69l-1.191-1.45zm.195-1.152l.075-.055c.127-.096.233-.18.316-.252.083-.071.143-.132.18-.181a.546.546 0 0 0 .117-.356.503.503 0 0 0-.16-.387.607.607 0 0 0-.43-.148.594.594 0 0 0-.414.152.467.467 0 0 0-.168.371c0 .178.07.352.21.524l.227.273a.444.444 0 0 0 .047.059zm7.383.371l2.348-2.406h1.215l-2.727 2.73L66.53 93h-1.218l-2.172-2.684-.188.188V93h-.91v-6.031h.91v2.406zm7.934 2.16h-2.582L67.63 93h-.98l2.984-6.41L72.514 93h-.996l-.633-1.465zm-.371-.855l-.895-2.051-.937 2.05h1.832zm4.797-.25L77.178 93h-1.114l-1.722-2.469h-.164V93h-.91v-6.031h1.066c.797 0 1.372.15 1.727.449.39.333.585.773.585 1.32 0 .427-.122.795-.367 1.102a1.637 1.637 0 0 1-.968.59zm-1.133-.692h.289c.862 0 1.293-.33 1.293-.988 0-.617-.42-.926-1.258-.926h-.324v1.914zm7.449 1.797h-2.582L78.373 93h-.98l2.984-6.41L83.256 93h-.996l-.633-1.465zm-.371-.855l-.895-2.051-.937 2.05h1.832zm2.453-.723c0-.849.311-1.578.934-2.187a3.073 3.073 0 0 1 2.234-.915c.86 0 1.596.308 2.21.922.618.615.927 1.353.927 2.215 0 .867-.31 1.603-.93 2.207a3.111 3.111 0 0 1-2.254.91c-.779 0-1.478-.27-2.098-.808-.682-.597-1.023-1.378-1.023-2.344zm.918.012c0 .666.224 1.215.672 1.644.445.43.96.645 1.543.645a2.17 2.17 0 0 0 1.601-.656c.435-.443.653-.982.653-1.618 0-.643-.215-1.182-.645-1.617-.427-.437-.956-.656-1.586-.656-.627 0-1.157.219-1.59.656-.432.432-.648.966-.648 1.602zm7.441-.594l2.348-2.406h1.215l-2.727 2.73L95.646 93h-1.218l-2.172-2.684-.188.188V93h-.91v-6.031h.91v2.406zm7.72-1.55h-2.419v1.448h2.348v.856h-2.348v2.016h2.418V93H96.46v-6.031h3.328v.855zm8.12-.532v1.078c-.526-.44-1.07-.66-1.633-.66a2.08 2.08 0 0 0-1.566.668c-.427.443-.64.984-.64 1.625 0 .633.213 1.167.64 1.601.427.435.95.653 1.57.653.32 0 .593-.052.817-.156.125-.053.254-.123.388-.211.134-.089.276-.196.424-.32v1.097a3.287 3.287 0 0 1-1.64.441c-.862 0-1.598-.3-2.207-.902a2.992 2.992 0 0 1-.91-2.195c0-.769.253-1.453.761-2.055.625-.737 1.434-1.105 2.426-1.105a3.08 3.08 0 0 1 1.57.441zm2.059-.324v5.176h1.773V93h-2.683v-6.031h.91zm3.547 0v3.633c0 .518.084.897.254 1.136.252.347.608.52 1.066.52.46 0 .818-.173 1.07-.52.17-.231.254-.61.254-1.136v-3.633h.91v3.883c0 .635-.198 1.158-.593 1.57a2.198 2.198 0 0 1-1.641.687c-.648 0-1.194-.229-1.637-.687-.396-.412-.593-.935-.593-1.57v-3.883h.91zm5 6.031v-6.031h.906c.404 0 .725.031.965.094.242.062.446.167.613.316.17.154.303.345.402.574.102.232.153.466.153.703 0 .433-.166.798-.496 1.098.32.11.573.3.757.574.188.271.282.586.282.945 0 .472-.167.87-.5 1.196-.2.2-.426.34-.676.418a3.93 3.93 0 0 1-1.027.113h-1.38zm.91-3.441h.285c.339 0 .587-.075.744-.225.158-.15.236-.37.236-.662 0-.284-.08-.5-.242-.647-.161-.147-.396-.22-.703-.22h-.32v1.754zm0 2.586h.562c.412 0 .714-.081.907-.243a.837.837 0 0 0 .304-.664.85.85 0 0 0-.293-.656c-.19-.174-.53-.262-1.02-.262h-.46v1.825z"/>
        <path d="M65.786 35.138c.05.589.117 1.128.216 1.619.183.916.615 1.602 1.213 2.092.698.573 1.595.867 2.526.95 1.462.13 2.676-.197 3.656-.851l.033-.016c1.08-.737 1.91-1.897 2.476-3.336a4.91 4.91 0 0 0 .182-.523c-.747-.115-1.196-.409-1.478-.867-.333-.54-.366-1.21-.366-2.044 0-1.096.017-2.142.033-3.188.034-1.799.067-3.548-.05-5.314-.066-.785-.166-1.488-.365-2.06-.183-.556-.449-1.014-.814-1.374a.538.538 0 0 1-.15-.442c.282-2.812.05-4.986-.681-6.556-.598-1.275-1.546-2.158-2.858-2.65.016 2.045.016 4.841.033 7.964.017 4.235.017 9.091.017 13.506 0 1.995-1.28 2.73-2.41 2.975-.432.099-.83.115-1.13.115h-.083zm-.083-4.725a87.824 87.824 0 0 0 .017 3.662h.166a3.7 3.7 0 0 0 .88-.098c.732-.147 1.562-.621 1.562-1.929 0-3.254-.016-6.753-.016-10.072a16.55 16.55 0 0 0-1.612-.41c-.449-.08-.898-.163-1.362-.212.398 3.221.382 6.328.365 9.059zM60.518 8.077c.55.981 1.097 1.995 1.729 3.14a24.32 24.32 0 0 1 1.595 3.58c.183-1.962.183-4.103-.15-6.098-.365-2.24-1.146-4.3-2.509-5.772a5.185 5.185 0 0 0-2.127-1.374c-.648-.229-1.362-.375-2.176-.458.78 1.865 2.16 4.333 3.638 6.982zM43.303 39.225c1.264 1.178 2.427 2.274 3.69 1.93.498-.13.93-.556 1.246-1.39.382-.965.582-2.436.565-4.578 0-.507.033-2.142.05-3.957.033-2.273.066-4.807.066-5.624V17.38c0-.164.067-.31.2-.425.315-.278 1.063-.769 1.977-1.226v-1.455c-.016-.557-.016-1.145-.016-1.7l-.15-.165c-.35-.343-.731-.735-1.047-.784-.366-.065-.897.016-1.462.229a6.112 6.112 0 0 0-1.563.898l.05 19.196c0 2.339-.082 4.105-.747 5.315-.582 1.047-1.513 1.651-3.058 1.782l.2.18zm18.428 6.623c-1.495-.736-2.758-1.831-3.771-3.172-.948-1.226-1.679-2.666-2.227-4.235-.216 2.861-1.03 4.61-3.756 5.2l.283.147c1.745.915 3.888 2.06 7.162 2.06h2.31zM55.733 32.75c.216 3.548 1.247 6.867 3.09 9.287 1.712 2.24 4.138 3.696 7.295 3.81 2.094 0 3.789-.016 4.404 0h2.626c1.877-1.93 4.004-4.12 5.948-3.842.648.098 1.43.572 2.243 1.242.765.638 1.562 1.455 2.327 2.256.116.115.216.23.316.344 4.17-.212 5.649-.817 6.829-1.292.98-.392 1.761-.703 2.609-.687 1.23.017 2.36.507 3.523.998.963.425 1.943.834 2.957.965.698.081 2.094.049 3.49.032.448-.01 2.04-.015 4.778-.016a.532.532 0 0 1 0 1.063h-2.867c-3.34.049-4.786.065-5.534-.017-1.163-.147-2.226-.588-3.256-1.046-1.064-.442-2.11-.9-3.108-.916-.615-.016-1.312.278-2.177.621-1.263.507-2.824 1.128-5.068 1.292-1.13.18-1.03.294-.93.409 1.81 2.093 2.276 2.649 6.73 2.649 4.608 0 8.055-.037 10.342-.112a.52.52 0 0 1 .538.52c0 .302-.24.548-.54.557-2.28.065-5.726.097-10.34.097-4.952 0-5.484-.62-7.561-3.008a43.412 43.412 0 0 0-1.53-1.716 30.47 30.47 0 0 0-2.225-2.175c-.682-.54-1.28-.933-1.695-.998-1.397-.196-3.324 1.782-4.969 3.483-.748.752-1.429 1.47-2.027 1.946-4.354 3.4-7.361 2.387-10.801 1.242-1.629-.556-3.357-1.128-5.367-1.242-1.678-.098-3.357.343-5.334.85-2.642.687-5.816 1.504-10.353 1.504H20.202a.54.54 0 0 1 0-1.08l19.894.001c4.42 0 7.511-.801 10.07-1.455 2.078-.54 3.822-.998 5.683-.883 2.16.114 3.955.72 5.65 1.292 3.14 1.046 5.882 1.978 9.77-1.08.25-.196.533-.441.832-.735-3.24.016-5.268.016-5.966 0h-6.713c-3.556 0-5.816-1.194-7.677-2.175-1.213-.638-2.227-1.177-3.257-1.161-1.645.016-3.39 1.03-5.2 2.077-2.078 1.226-4.238 2.469-6.598 2.436-.847-.016-1.396-.23-2.044-.474-.748-.295-1.644-.638-3.406-.703-1.545-.066-3.506-.049-5.949-.017-.906 0-3.582.005-8.028.016a.53.53 0 0 1-.532-.53c0-.294.238-.533.532-.533 4.446-.01 7.122-.021 8.028-.032 2.46-.016 4.437-.032 5.982.033 1.944.065 2.941.442 3.756.768.548.213 1.03.393 1.678.393 2.06.032 4.071-1.128 6.032-2.273 1.927-1.112 3.788-2.208 5.732-2.24.566 0 1.097.098 1.629.278 4.752-.163 4.686-3.22 4.57-8.927 0-.344-.017-.704-.017-1.063a12.12 12.12 0 0 1-.034-.786c-.032-3.777.067-8.485 1.313-14.077a59.312 59.312 0 0 1-.664-2.273l-.083.163c-.449-.212-1.263-.049-2.11.245-1.263.426-2.543 1.161-3.075 1.57v7.963c.017.85-.017 3.385-.05 5.657-.033 1.816-.05 3.45-.05 3.925.017 2.289-.216 3.891-.63 4.97-.466 1.21-1.164 1.816-1.978 2.044-1.861.507-3.24-.784-4.736-2.175-1.263-1.194-2.626-2.468-4.304-2.452-1.695.016-3.008 1.08-4.32 2.142-.914.736-1.811 1.455-2.875 1.913-.648.278-1.445.507-2.343.687-.897.18-1.877.31-2.924.409a47.64 47.64 0 0 1-2.56.18c-.497.029-1.506.058-3.028.087a.53.53 0 0 1-.54-.53c0-.298.24-.542.54-.546 1.48-.02 2.473-.046 2.979-.075a65.463 65.463 0 0 0 2.509-.18 30.391 30.391 0 0 0 2.808-.392c.815-.163 1.546-.36 2.127-.621.831-.36 1.579-.932 2.326-1.537l-18.611-.032a.538.538 0 1 1 0-1.079l19.974.048c1.13-.833 2.343-1.52 3.921-1.537 1.446-.016 2.626.638 3.673 1.488 1.828.098 2.791-.327 3.29-1.226.548-1.014.631-2.633.631-4.808l-.05-15.32c-2.558.392-2.824 1.112-3.29 2.142-.016 2.11.017 3.99.067 5.657.033 1.16.05 2.224.05 3.074 0 5.298-.798 7.734-6.215 7.734l-16.19-.11a.543.543 0 0 1-.539-.544.536.536 0 0 1 .54-.536l16.189.11c4.47 0 5.135-2.092 5.135-6.654 0-.997-.033-1.978-.05-3.04-.05-1.718-.1-3.647-.067-5.822 0-.065.017-.147.05-.212.765-1.668.948-2.486.948-2.486a.556.556 0 0 1 .581-.408l2.792.032-.017-3.057c0-.148.066-.311.2-.41.664-.555 1.379-.98 2.076-1.242.748-.278 1.463-.392 2.044-.294.648.13 1.163.637 1.612 1.095.117.098.216.197.3.295a.495.495 0 0 1 .182.392v2.894c.183-.065.366-.13.531-.196.832-.278 1.646-.441 2.327-.36a32.53 32.53 0 0 1-.665-3.727c-.382-3.467-.116-6.933 1.197-10.629A.545.545 0 0 1 55.899 0c1.446.017 2.56.196 3.54.54.997.36 1.844.9 2.542 1.667 1.529 1.652 2.376 3.908 2.791 6.312.482 2.943.3 6.148-.182 8.748.249 1.014.449 2.01.598 3.008.582.05 1.163.131 1.728.245.465.082.93.197 1.396.327l-.017-2.305c0-3.5-.016-6.573-.033-8.65-.017-.049 0-.114.017-.18.066-.278.365-.458.664-.392 1.995.507 3.423 1.652 4.27 3.466.799 1.7 1.048 3.974.782 6.868.399.458.698.98.897 1.602.233.67.349 1.456.416 2.322.132 1.799.1 3.581.05 5.412-.017 1.03-.034 2.093-.017 3.156 0 .67.017 1.194.2 1.504.115.197.382.327.863.376.1-.408.183-.817.266-1.242.2-1.178.283-2.339.299-3.401.05-2.715.033-6.524 0-11.053-.016-3.368-.05-7.13-.05-11.168 0-.213.133-.425.349-.507 1.363-.556 2.094-.85 2.094-.85 1.312.54 1.91 1.112 2.293 1.749.399.654.565 1.374.482 2.158l-.033 1.309c.664.85 1.146 1.667 1.429 2.452.315.867.399 1.7.266 2.502l-.15 2.485 1.28 1.88c.182.377.25 1.26.216 2.715l.249 7.603c.581 1.291 1.246 2.42 2.077 3.385h14.827a.54.54 0 1 1 0 1.08l-13.763-.001c.398.343.813.653 1.279.932 2.077 1.259 4.902 1.929 8.907 1.929 2.578.031 5.725.033 9.44.004a.535.535 0 0 1 .539.536.544.544 0 0 1-.54.543c-3.694.028-6.846.022-9.456-.02-4.204 0-7.212-.72-9.455-2.077-2.277-1.39-3.755-3.4-4.902-5.984a.493.493 0 0 1-.05-.213l-.233-7.701c.017-1.26 0-1.978-.066-2.175l-1.346-1.994a.676.676 0 0 1-.1-.344l.15-2.681c.116-.687.05-1.341-.2-2.044-.265-.736-.714-1.504-1.379-2.306a.536.536 0 0 1-.116-.343l.05-1.52c.05-.59-.05-1.096-.333-1.57-.265-.425-.664-.817-1.213-1.194-.282.115-.78.31-1.495.605 0 3.892.017 7.554.033 10.808.034 4.562.067 8.372.017 11.086-.033 1.112-.116 2.338-.333 3.564a16.935 16.935 0 0 1-.814 3.025c-.648 1.635-1.595 2.96-2.875 3.826-1.229.818-2.675 1.21-4.386 1.047-1.163-.098-2.26-.474-3.14-1.194-.782-.637-1.347-1.52-1.596-2.714-.332-1.717-.332-3.957-.316-6.54.033-5.462.083-12.427-3.323-18.69-.515-.964-1.13-2.06-1.728-3.139-1.346-2.387-2.592-4.643-3.423-6.475-.848 2.992-.997 5.87-.681 8.732.382 3.335 1.395 6.67 2.708 10.17.498 1.325.914 3.024 1.362 4.889 1.629 6.802 3.856 16.007 12.313 16.007 1.08 0 2.077-.261 3.008-.638.897-.36 1.745-.85 2.493-1.291a30.67 30.67 0 0 0 1.512-.802c.748-.409 1.429-.784 2.093-1.013 2.975-.997 4.238-.098 5.9 1.062 1.13.785 2.459 1.734 4.819 2.143 2.456.422 6.393.604 11.813.546a.533.533 0 0 1 .538.533c0 .299-.24.542-.54.545-5.497.047-9.495-.145-11.994-.578-2.593-.441-4.038-1.455-5.268-2.322-1.396-.98-2.476-1.733-4.919-.916-.581.197-1.213.54-1.894.933-.448.245-.914.507-1.412.736-.798.473-1.712.997-2.725 1.422-1.047.425-2.194.72-3.424.72-9.321 0-11.664-9.696-13.375-16.826-.45-1.864-.848-3.531-1.314-4.774-.182-.474-.348-.948-.515-1.406-.947 5.036-.947 9.32-.897 12.77z"/>
        <path d="M106.707 77.479V64.013h7.193v1.461h-5.585v3.862h5.585v1.483h-5.585v5.156h5.585v1.504h-7.193zm-3.745-10.25c-.655-.69-1.332-1.212-2.072-1.546-.741-.334-1.566-.5-2.454-.5-.72 0-1.439.145-2.116.417a5.555 5.555 0 0 0-2.962 3.006c-.254.647-.38 1.378-.38 2.17 0 .627.063 1.212.232 1.734.148.542.38 1.023.698 1.46.55.773 1.206 1.358 2.01 1.776a5.783 5.783 0 0 0 2.58.605c.869 0 1.693-.167 2.434-.521.74-.356 1.418-.899 2.03-1.587v2.108c-.676.5-1.395.856-2.178 1.107a7.867 7.867 0 0 1-2.412.375c-.719 0-1.438-.104-2.115-.312a7.82 7.82 0 0 1-1.926-.94c-.973-.668-1.734-1.503-2.263-2.506-.53-1.001-.783-2.087-.783-3.277 0-1.023.17-1.962.508-2.818.36-.857.888-1.629 1.608-2.317a7.08 7.08 0 0 1 2.327-1.483c.846-.334 1.756-.48 2.75-.48.803 0 1.565.105 2.306.355.74.23 1.46.584 2.178 1.086v2.087zm-16.945 10.25h1.63V64.013h-1.63v13.466zM82.4 70.777c0 .96-.19 1.859-.55 2.714a6.985 6.985 0 0 1-1.566 2.276 7.749 7.749 0 0 1-2.39 1.524 7.465 7.465 0 0 1-2.793.542 7.438 7.438 0 0 1-2.77-.542 7.417 7.417 0 0 1-2.37-1.524 7.195 7.195 0 0 1-1.608-2.296 6.803 6.803 0 0 1-.529-2.694c0-.981.17-1.878.53-2.735.38-.856.91-1.607 1.607-2.275a6.974 6.974 0 0 1 2.348-1.524 7.629 7.629 0 0 1 2.792-.543c.974 0 1.905.188 2.814.543a7.275 7.275 0 0 1 2.37 1.524 6.771 6.771 0 0 1 1.565 2.275c.36.857.55 1.754.55 2.735zm-7.299 5.553c.741 0 1.46-.146 2.137-.417a5.831 5.831 0 0 0 1.82-1.232c.529-.522.93-1.127 1.206-1.795a5.151 5.151 0 0 0 .423-2.11c0-.771-.127-1.481-.423-2.17a5.4 5.4 0 0 0-1.207-1.795 5.88 5.88 0 0 0-1.819-1.21 5.62 5.62 0 0 0-2.137-.398 5.73 5.73 0 0 0-2.157.397 5.776 5.776 0 0 0-1.798 1.21 5.69 5.69 0 0 0-1.206 1.816 5.572 5.572 0 0 0-.423 2.15c0 .732.127 1.441.402 2.11a6.028 6.028 0 0 0 1.227 1.795c.55.543 1.163.96 1.819 1.232a5.731 5.731 0 0 0 2.136.417zM60.653 78l-5.776-13.987h1.777l3.999 10.292 3.977-10.292h1.756L60.653 78zm-17.644-.521V71.32l-4.611-7.307h1.882l3.554 5.845 3.555-5.845h1.861L44.64 71.32v6.159h-1.63zm-11.995 0V65.537h-3.85v-1.524h9.33v1.524h-3.83v11.942h-1.65zm-8.27 0h1.628V64.013h-1.629v13.466zm-3.745-10.25c-.656-.69-1.334-1.212-2.074-1.546-.74-.334-1.565-.5-2.454-.5-.72 0-1.438.145-2.115.417a5.559 5.559 0 0 0-2.962 3.006c-.254.647-.38 1.378-.38 2.17 0 .627.063 1.212.232 1.734.148.542.381 1.023.698 1.46.55.773 1.206 1.358 2.01 1.776.804.397 1.65.605 2.58.605.869 0 1.693-.167 2.434-.521.74-.356 1.417-.899 2.031-1.587v2.108c-.678.5-1.397.856-2.18 1.107a7.868 7.868 0 0 1-2.411.375 7.21 7.21 0 0 1-2.115-.312 7.82 7.82 0 0 1-1.926-.94 6.776 6.776 0 0 1-2.263-2.506 6.896 6.896 0 0 1-.804-3.277c0-1.023.19-1.962.528-2.818.36-.857.89-1.629 1.609-2.317a7.08 7.08 0 0 1 2.327-1.483c.846-.334 1.756-.48 2.75-.48.804 0 1.565.105 2.306.355.74.23 1.46.584 2.179 1.086v2.087z"/>
    </g>
</svg>
