<?xml version="1.0" encoding="UTF-8"?><!DOCTYPE svg PUBLIC "-//W3C//DTD SVG 1.1//EN" "http://www.w3.org/Graphics/SVG/1.1/DTD/svg11.dtd"><svg xmlns="http://www.w3.org/2000/svg"><symbol id="icon-facebook" viewBox="0 0 10 19">
    <title>
        facebook
    </title>
    <path d="M9.766.157v2.946H8.014c-.64 0-1.071.134-1.295.402-.223.268-.335.67-.335 1.205v2.11h3.27l-.435 3.303H6.384v8.471H2.97v-8.47H.123V6.82H2.97V4.387c0-1.384.387-2.457 1.161-3.22C4.904.404 5.934.023 7.222.023c1.093 0 1.941.045 2.544.134z" fill-rule="evenodd"/>
</symbol><symbol id="icon-no-voise" viewBox="0 0 11 12">
    <title>
        Combined Shape
    </title>
    <path d="M8.866 8.063L4.128 3.325 8.049.115c.317-.272.801-.03.817.378v7.57zm0 2.828v.6a.5.5 0 0 1-.817.394L4.056 8.617l-2.24-.212A.88.88 0 0 1 1 7.513V4.487a.9.9 0 0 1 .613-.848l7.253 7.252zM.4 1.414L.814 1l10.142 10.142-.414.414L.4 1.414z" fill-rule="evenodd"/>
</symbol><symbol id="icon-play" viewBox="0 0 26 31">
    <title>
        Page 1
    </title>
    <path d="M.2 29.456a1.549 1.549 0 0 0 .728 1.339 1.41 1.41 0 0 0 1.47-.004l22.689-13.814a1.459 1.459 0 0 0 .713-1.288c.003-.553-.316-.989-.77-1.262L2.47.843C2.014.569 1.493.499 1.036.777c-.458.28-.701.719-.704 1.27L.2 29.457z" fill-rule="evenodd"/>
</symbol><symbol id="icon-remove" viewBox="0 0 10 10">
    <title>
        Page 1
    </title>
    <path d="M9.758.23a.812.812 0 0 0-1.133 0L5.001 3.855 1.363.23A.812.812 0 0 0 .23.23a.813.813 0 0 0 0 1.133l3.638 3.625L.244 8.627a.813.813 0 0 0 0 1.133c.16.16.36.24.56.24.199 0 .412-.08.559-.24L5 6.121 8.639 9.76c.16.16.36.24.56.24.2 0 .413-.08.56-.24a.813.813 0 0 0 0-1.133L6.133 4.988 9.772 1.35A.784.784 0 0 0 9.758.23V.23z" fill-rule="evenodd"/>
</symbol><symbol id="icon-voise" viewBox="0 0 15 12">
    <title>
        Combined Shape
    </title>
    <path d="M7.444.116c.318-.273.802-.03.817.377v10.998a.5.5 0 0 1-.817.394L3.451 8.617l-2.24-.212a.88.88 0 0 1-.816-.892V4.487a.9.9 0 0 1 .817-.892l2.239-.211L7.444.116zm3.767 2.238a5.644 5.644 0 0 1 1.286 3.615 5.813 5.813 0 0 1-1.286 3.646c-.121.152-.318.167-.454.046l-.545-.484a.307.307 0 0 1-.03-.424 4.429 4.429 0 0 0 .968-2.768 4.427 4.427 0 0 0-.968-2.769.306.306 0 0 1 .03-.424l.545-.484a.316.316 0 0 1 .454.046zM12.875.811c1.18 1.407 1.89 3.177 1.89 5.16a8.03 8.03 0 0 1-1.89 5.189.298.298 0 0 1-.439.03l-.544-.5a.306.306 0 0 1-.03-.423 6.683 6.683 0 0 0 1.542-4.282 6.683 6.683 0 0 0-1.543-4.281.307.307 0 0 1 .03-.424l.545-.5c.12-.105.333-.105.439.031z" fill-rule="evenodd"/>
</symbol></svg>